<svg width="38" height="23" viewBox="0 0 38 23" fill="none" xmlns="http://www.w3.org/2000/svg">
<path d="M1.83663 4.16H3.14863V19.408H1.83663V4.16Z" fill="#ABABAB"/>
<path d="M26.0211 11.5002H20.1929M20.0277 12.2642L19.0648 15.1405C18.5375 16.7158 18.2738 17.5035 18.463 17.9885C18.6273 18.4098 18.9803 18.7291 19.4158 18.8507C19.9173 18.9906 20.6748 18.6498 22.1897 17.9681L31.9018 13.5976C33.3805 12.9321 34.1199 12.5995 34.3484 12.1373C34.5469 11.7358 34.5469 11.2645 34.3484 10.863C34.1199 10.4009 33.3805 10.0682 31.9018 9.40275L22.173 5.02477C20.6626 4.34511 19.9074 4.00528 19.4064 4.14469C18.9713 4.26575 18.6184 4.58426 18.4535 5.00471C18.2636 5.48885 18.5245 6.2748 19.0462 7.84672L20.0296 10.8095C20.1192 11.0795 20.164 11.2145 20.1817 11.3525C20.1974 11.4751 20.1972 11.5991 20.1812 11.7216C20.1632 11.8596 20.118 11.9944 20.0277 12.2642Z" stroke="#ABABAB" stroke-width="1.91667" stroke-linecap="round" stroke-linejoin="round"/>
</svg>
