<svg width="402" height="531" viewBox="0 0 402 531" fill="none" xmlns="http://www.w3.org/2000/svg">
<path d="M141.114 43.2141C136.674 42.5541 132.208 42.2141 127.754 42.2141C125.114 42.2141 122.474 42.4141 119.834 42.8141L117.114 43.2141" stroke="#D0D0D4" stroke-width="1.5" stroke-linecap="round" stroke-linejoin="round"/>
<path d="M124.114 42.2141L124.397 40.4498C124.603 39.1703 124.757 38.2141 126.93 38.2141H130.299C132.471 38.2141 132.639 39.2242 132.831 40.4633L133.114 42.2141" stroke="#D0D0D4" stroke-width="1.5" stroke-linecap="round" stroke-linejoin="round"/>
<path d="M138.114 47.2141L137.26 60.5259C137.116 62.6014 136.997 64.2141 133.332 64.2141H124.897C121.231 64.2141 121.113 62.6014 120.968 60.5259L120.114 47.2141" stroke="#D0D0D4" stroke-width="1.5" stroke-linecap="round" stroke-linejoin="round"/>
<path d="M127.114 57.2141H131.114" stroke="#D0D0D4" stroke-width="1.5" stroke-linecap="round" stroke-linejoin="round"/>
<path d="M126.114 52.2141H133.114" stroke="#D0D0D4" stroke-width="1.5" stroke-linecap="round" stroke-linejoin="round"/>
<path d="M131.114 144.214H125.114C121.114 144.214 120.114 143.214 120.114 139.214V135.214C120.114 131.214 121.114 130.214 125.114 130.214H131.114C135.114 130.214 136.114 131.214 136.114 135.214V139.214C136.114 143.214 135.114 144.214 131.114 144.214Z" stroke="#D0D0D4" stroke-width="1.5" stroke-linecap="round" stroke-linejoin="round"/>
<path d="M139.114 135.214C141.114 135.214 141.114 135.714 141.114 136.714V138.714C141.114 139.714 141.114 140.214 139.114 140.214" stroke="#D0D0D4" stroke-width="1.5" stroke-linecap="round" stroke-linejoin="round"/>
<path d="M60.3643 101.214H49.8643C42.8643 101.214 41.1143 99.4284 41.1143 92.2855V85.1427C41.1143 77.9998 42.8643 76.2141 49.8643 76.2141H60.3643C67.3643 76.2141 69.1143 77.9998 69.1143 85.1427V92.2855C69.1143 99.4284 67.3643 101.214 60.3643 101.214Z" stroke="#D0D0D4" stroke-width="1.5" stroke-linecap="round" stroke-linejoin="round"/>
<path d="M73.1143 84.2141C76.1143 84.2141 76.1143 85.1141 76.1143 86.9141V90.5141C76.1143 92.3141 76.1143 93.2141 73.1143 93.2141" stroke="#D0D0D4" stroke-width="1.5" stroke-linecap="round" stroke-linejoin="round"/>
<path d="M48.1143 85.2141C48.6918 87.5066 48.6918 89.9216 48.1143 92.2141" stroke="#D0D0D4" stroke-width="1.5" stroke-linecap="round" stroke-linejoin="round"/>
<path d="M343.114 145.214C346.114 145.214 346.114 146.114 346.114 147.914V151.514C346.114 153.314 346.114 154.214 343.114 154.214" stroke="#D0D0D4" stroke-width="1.5" stroke-linecap="round" stroke-linejoin="round"/>
<path d="M318.114 146.214C318.692 148.507 318.692 150.922 318.114 153.214" stroke="#D0D0D4" stroke-width="1.5" stroke-linecap="round" stroke-linejoin="round"/>
<path d="M324.114 146.214C324.692 148.507 324.692 150.922 324.114 153.214" stroke="#D0D0D4" stroke-width="1.5" stroke-linecap="round" stroke-linejoin="round"/>
<path d="M330.364 162.214H319.864C312.864 162.214 311.114 160.428 311.114 153.286V146.143C311.114 139 312.864 137.214 319.864 137.214H330.364C337.364 137.214 339.114 139 339.114 146.143V153.286C339.114 160.428 337.364 162.214 330.364 162.214Z" stroke="#D0D0D4" stroke-width="1.5" stroke-linecap="round" stroke-linejoin="round"/>
<path d="M87.1143 199.214C89.1143 199.214 89.1143 199.714 89.1143 200.714V202.714C89.1143 203.714 89.1143 204.214 87.1143 204.214" stroke="#D0D0D4" stroke-width="1.5" stroke-linecap="round" stroke-linejoin="round"/>
<path d="M72.1143 199.214C72.4443 200.524 72.4443 201.904 72.1143 203.214" stroke="#D0D0D4" stroke-width="1.5" stroke-linecap="round" stroke-linejoin="round"/>
<path d="M76.1143 199.214C76.4443 200.524 76.4443 201.904 76.1143 203.214" stroke="#D0D0D4" stroke-width="1.5" stroke-linecap="round" stroke-linejoin="round"/>
<path d="M79.1143 199.214C79.4443 200.524 79.4443 201.904 79.1143 203.214" stroke="#D0D0D4" stroke-width="1.5" stroke-linecap="round" stroke-linejoin="round"/>
<path d="M79.1143 208.214H73.1143C69.1143 208.214 68.1143 207.214 68.1143 203.214V199.214C68.1143 195.214 69.1143 194.214 73.1143 194.214H79.1143C83.1143 194.214 84.1143 195.214 84.1143 199.214V203.214C84.1143 207.214 83.1143 208.214 79.1143 208.214Z" stroke="#D0D0D4" stroke-width="1.5" stroke-linecap="round" stroke-linejoin="round"/>
<path d="M245.114 142.214C247.114 142.214 247.114 142.714 247.114 143.714V145.714C247.114 146.714 247.114 147.214 245.114 147.214" stroke="#D0D0D4" stroke-width="1.5" stroke-linecap="round" stroke-linejoin="round"/>
<path d="M234.001 140.214L232.243 142.714C231.88 143.384 232.327 144.214 233.043 144.214H235.182C235.898 144.214 236.344 145.044 235.991 145.714L234.001 148.214" stroke="#D0D0D4" stroke-width="1.5" stroke-linecap="round" stroke-linejoin="round"/>
<path d="M231.114 151.214C227.114 151.214 226.114 150.214 226.114 146.214V142.214C226.114 138.214 227.114 137.214 231.114 137.214" stroke="#D0D0D4" stroke-width="1.5" stroke-linecap="round" stroke-linejoin="round"/>
<path d="M237.114 137.214C241.114 137.214 242.114 138.214 242.114 142.214V146.214C242.114 150.214 241.114 151.214 237.114 151.214" stroke="#D0D0D4" stroke-width="1.5" stroke-linecap="round" stroke-linejoin="round"/>
<path d="M17.1143 178.214C22.6143 178.214 27.1143 173.714 27.1143 168.214C27.1143 162.714 22.6143 158.214 17.1143 158.214C11.6143 158.214 7.11426 162.714 7.11426 168.214C7.11426 173.714 11.6143 178.214 17.1143 178.214Z" stroke="#D0D0D4" stroke-width="1.5" stroke-linecap="round" stroke-linejoin="round"/>
<path d="M13.1143 168.214H21.1143" stroke="#D0D0D4" stroke-width="1.5" stroke-linecap="round" stroke-linejoin="round"/>
<path d="M17.1143 172.214V164.214" stroke="#D0D0D4" stroke-width="1.5" stroke-linecap="round" stroke-linejoin="round"/>
<path d="M103.114 283.214C108.614 283.214 113.114 278.714 113.114 273.214C113.114 267.714 108.614 263.214 103.114 263.214C97.6143 263.214 93.1143 267.714 93.1143 273.214C93.1143 278.714 97.6143 283.214 103.114 283.214Z" stroke="#D0D0D4" stroke-width="1.5" stroke-linecap="round" stroke-linejoin="round"/>
<path d="M99.1143 273.214H107.114" stroke="#D0D0D4" stroke-width="1.5" stroke-linecap="round" stroke-linejoin="round"/>
<path d="M201.614 248.214C213.439 248.214 223.114 238.539 223.114 226.714C223.114 214.889 213.439 205.214 201.614 205.214C189.789 205.214 180.114 214.889 180.114 226.714C180.114 238.539 189.789 248.214 201.614 248.214Z" stroke="#D0D0D4" stroke-width="1.5" stroke-linecap="round" stroke-linejoin="round"/>
<path d="M196.114 233.214L208.114 221.214" stroke="#D0D0D4" stroke-width="1.5" stroke-linecap="round" stroke-linejoin="round"/>
<path d="M208.114 233.214L196.114 221.214" stroke="#D0D0D4" stroke-width="1.5" stroke-linecap="round" stroke-linejoin="round"/>
<path d="M297.114 252.214C302.614 252.214 307.114 247.714 307.114 242.214C307.114 236.714 302.614 232.214 297.114 232.214C291.614 232.214 287.114 236.714 287.114 242.214C287.114 247.714 291.614 252.214 297.114 252.214Z" stroke="#D0D0D4" stroke-width="1.5" stroke-linecap="round" stroke-linejoin="round"/>
<path d="M301.61 242.714H301.619" stroke="#D0D0D4" stroke-width="2" stroke-linecap="round" stroke-linejoin="round"/>
<path d="M297.61 242.714H297.619" stroke="#D0D0D4" stroke-width="2" stroke-linecap="round" stroke-linejoin="round"/>
<path d="M293.61 242.714H293.619" stroke="#D0D0D4" stroke-width="2" stroke-linecap="round" stroke-linejoin="round"/>
<path d="M282.114 83.2141C287.614 83.2141 292.114 78.7141 292.114 73.2141C292.114 67.7141 287.614 63.2141 282.114 63.2141C276.614 63.2141 272.114 67.7141 272.114 73.2141C272.114 78.7141 276.614 83.2141 282.114 83.2141Z" stroke="#D0D0D4" stroke-width="1.5" stroke-linecap="round" stroke-linejoin="round"/>
<path d="M282.114 69.2141V74.2141" stroke="#D0D0D4" stroke-width="1.5" stroke-linecap="round" stroke-linejoin="round"/>
<path d="M282.114 77.2141H282.123" stroke="#D0D0D4" stroke-width="2" stroke-linecap="round" stroke-linejoin="round"/>
<path d="M379.114 230.214V235.214" stroke="#D0D0D4" stroke-width="1.5" stroke-linecap="round" stroke-linejoin="round"/>
<path d="M379.115 243.204H373.054C369.584 243.204 368.134 240.701 369.814 237.644L372.934 231.972L375.875 226.644C377.655 223.404 380.575 223.404 382.356 226.644L385.296 231.982L388.416 237.654C390.097 240.711 388.636 243.214 385.176 243.214H379.115V243.204Z" stroke="#D0D0D4" stroke-width="1.5" stroke-linecap="round" stroke-linejoin="round"/>
<path d="M379.114 238.214H379.123" stroke="#D0D0D4" stroke-width="2" stroke-linecap="round" stroke-linejoin="round"/>
<path d="M364.114 62.2141L370.114 56.2141" stroke="#D0D0D4" stroke-width="1.5" stroke-linecap="round" stroke-linejoin="round"/>
<path d="M370.114 62.2141L364.114 56.2141" stroke="#D0D0D4" stroke-width="1.5" stroke-linecap="round" stroke-linejoin="round"/>
<path d="M364.114 69.2141H370.114C375.114 69.2141 377.114 67.2141 377.114 62.2141V56.2141C377.114 51.2141 375.114 49.2141 370.114 49.2141H364.114C359.114 49.2141 357.114 51.2141 357.114 56.2141V62.2141C357.114 67.2141 359.114 69.2141 364.114 69.2141Z" stroke="#D0D0D4" stroke-width="1.5" stroke-linecap="round" stroke-linejoin="round"/>
<path d="M21.1143 496.214H45.1143" stroke="#D0D0D4" stroke-width="1.5" stroke-linecap="round"/>
<path d="M25.1143 503.214H41.1143" stroke="#D0D0D4" stroke-width="1.5" stroke-linecap="round"/>
<path d="M30.1143 510.214H35.1143" stroke="#D0D0D4" stroke-width="1.5" stroke-linecap="round"/>
<path d="M142.611 345.443L151.218 349.724C155.08 351.644 155.08 354.784 151.218 356.705L142.611 360.985C136.819 363.866 134.456 361.505 137.352 355.754L138.226 354.024C138.448 353.584 138.448 352.854 138.226 352.414L137.352 350.674C134.456 344.923 136.829 342.563 142.611 345.443Z" stroke="#D0D0D4" stroke-width="1.5" stroke-linecap="round" stroke-linejoin="round"/>
<path d="M138.114 353.214H143.114" stroke="#D0D0D4" stroke-width="1.5" stroke-linecap="round" stroke-linejoin="round"/>
<path d="M213.614 353.564H222.614C223.234 353.564 223.784 353.584 224.274 353.654C226.904 353.944 227.614 355.184 227.614 358.564V364.564C227.614 367.944 226.904 369.184 224.274 369.474C223.784 369.544 223.234 369.564 222.614 369.564H213.614C212.994 369.564 212.444 369.544 211.954 369.474C209.324 369.184 208.614 367.944 208.614 364.564V358.564C208.614 355.184 209.324 353.944 211.954 353.654C212.444 353.584 212.994 353.564 213.614 353.564Z" stroke="#D0D0D4" stroke-width="1.5" stroke-linecap="round" stroke-linejoin="round"/>
<path d="M219.614 359.564H223.114" stroke="#D0D0D4" stroke-width="1.5" stroke-linecap="round" stroke-linejoin="round"/>
<path d="M213.114 365.064H213.134H223.114" stroke="#D0D0D4" stroke-width="1.5" stroke-linecap="round" stroke-linejoin="round"/>
<path d="M216.209 359.564H216.218" stroke="#D0D0D4" stroke-width="2" stroke-linecap="round" stroke-linejoin="round"/>
<path d="M213.209 359.564H213.218" stroke="#D0D0D4" stroke-width="2" stroke-linecap="round" stroke-linejoin="round"/>
<path d="M250.454 305.459L259.058 302.592C262.919 301.305 265.017 303.413 263.74 307.273L260.872 315.875C258.947 321.66 255.785 321.66 253.859 315.875L253.008 313.322L250.454 312.471C244.668 310.546 244.668 307.395 250.454 305.459Z" stroke="#D0D0D4" stroke-width="1.5" stroke-linecap="round" stroke-linejoin="round"/>
<path d="M253.114 313.214L257.114 309.214" stroke="#D0D0D4" stroke-width="1.5" stroke-linecap="round" stroke-linejoin="round"/>
<path d="M248.114 11.2141C251.393 13.7003 253.655 17.6531 254.114 22.2141" stroke="#D0D0D4" stroke-width="1.5" stroke-linecap="round" stroke-linejoin="round"/>
<path d="M224.114 22.2141C224.548 17.671 226.814 13.7182 230.114 11.2141" stroke="#D0D0D4" stroke-width="1.5" stroke-linecap="round" stroke-linejoin="round"/>
<path d="M232.114 37.2141C234.098 38.4967 236.356 39.2141 238.734 39.2141C241.026 39.2141 243.181 38.5619 245.114 37.3663" stroke="#D0D0D4" stroke-width="1.5" stroke-linecap="round" stroke-linejoin="round"/>
<path d="M239.114 14.2141C241.876 14.2141 244.114 11.9755 244.114 9.21411C244.114 6.45269 241.876 4.21411 239.114 4.21411C236.353 4.21411 234.114 6.45269 234.114 9.21411C234.114 11.9755 236.353 14.2141 239.114 14.2141Z" stroke="#D0D0D4" stroke-width="1.5" stroke-linecap="round" stroke-linejoin="round"/>
<path d="M227.114 35.2141C229.876 35.2141 232.114 32.9755 232.114 30.2141C232.114 27.4527 229.876 25.2141 227.114 25.2141C224.353 25.2141 222.114 27.4527 222.114 30.2141C222.114 32.9755 224.353 35.2141 227.114 35.2141Z" stroke="#D0D0D4" stroke-width="1.5" stroke-linecap="round" stroke-linejoin="round"/>
<path d="M252.114 35.2141C254.876 35.2141 257.114 32.9755 257.114 30.2141C257.114 27.4527 254.876 25.2141 252.114 25.2141C249.353 25.2141 247.114 27.4527 247.114 30.2141C247.114 32.9755 249.353 35.2141 252.114 35.2141Z" stroke="#D0D0D4" stroke-width="1.5" stroke-linecap="round" stroke-linejoin="round"/>
<path d="M331.525 354.494H334.709V361.693C334.709 363.373 335.647 363.713 336.791 362.453L344.593 353.854C345.552 352.804 345.15 351.934 343.697 351.934H340.512V344.735C340.512 343.055 339.574 342.715 338.43 343.975L330.628 352.574C329.68 353.634 330.082 354.494 331.525 354.494Z" stroke="#D0D0D4" stroke-width="1.5" stroke-miterlimit="10" stroke-linecap="round" stroke-linejoin="round"/>
<path d="M4.11426 314.458V297.714C4.11426 295.389 5.46176 294.83 7.10676 296.473L11.6393 301C12.3218 301.681 13.4418 301.681 14.1068 301L20.3718 294.725C21.0543 294.044 22.1743 294.044 22.8393 294.725L29.1218 301C29.8043 301.681 30.9243 301.681 31.5893 301L36.1218 296.473C37.7668 294.83 39.1143 295.389 39.1143 297.714V314.475C39.1143 319.719 35.6143 323.214 30.3643 323.214H12.8643C8.03426 323.197 4.11426 319.282 4.11426 314.458Z" stroke="#D0D0D4" stroke-width="1.5" stroke-linecap="round" stroke-linejoin="round"/>
<path d="M85.8294 424.214H76.4714C76.0533 424.214 75.5854 423.884 75.446 423.484L71.3246 411.9C70.7372 410.24 71.4241 409.73 72.8378 410.75L76.7203 413.541C77.3674 413.991 78.1041 413.761 78.3828 413.031L80.135 408.339C80.6925 406.839 81.6183 406.839 82.1758 408.339L83.9279 413.031C84.2067 413.761 84.9433 413.991 85.5805 413.541L89.2241 410.93C90.7771 409.81 91.5238 410.38 90.8866 412.191L86.8647 423.504C86.7154 423.884 86.2475 424.214 85.8294 424.214Z" stroke="#D0D0D4" stroke-width="1.5" stroke-linecap="round" stroke-linejoin="round"/>
<path d="M76.1143 427.214H87.1143" stroke="#D0D0D4" stroke-width="1.5" stroke-linecap="round" stroke-linejoin="round"/>
<path d="M79.1143 419.214H84.1143" stroke="#D0D0D4" stroke-width="1.5" stroke-linecap="round" stroke-linejoin="round"/>
<path d="M321.114 484.214V519.214" stroke="#D0D0D4" stroke-width="1.5" stroke-miterlimit="10" stroke-linecap="round" stroke-linejoin="round"/>
<path d="M321.114 487.214H340.726C345.454 487.214 346.505 489.839 343.178 493.164L341.076 495.264C339.675 496.664 339.675 498.939 341.076 500.164L343.178 502.264C346.505 505.589 345.279 508.214 340.726 508.214H321.114" stroke="#D0D0D4" stroke-width="1.5" stroke-miterlimit="10" stroke-linecap="round" stroke-linejoin="round"/>
<path d="M178.114 509.214V513.214" stroke="#D0D0D4" stroke-width="1.5" stroke-linecap="round" stroke-linejoin="round"/>
<path d="M170.114 518.214H188.114V516.547C188.114 514.714 186.494 513.214 184.514 513.214H173.714C171.734 513.214 170.114 514.714 170.114 516.547V518.214V518.214Z" stroke="#D0D0D4" stroke-width="1.5" stroke-miterlimit="10"/>
<path d="M168.114 519.214H189.114" stroke="#D0D0D4" stroke-width="1.5" stroke-linecap="round" stroke-linejoin="round"/>
<path d="M178.614 509.214C171.704 509.214 166.114 503.625 166.114 496.714V491.357C166.114 487.411 169.311 484.214 173.257 484.214H183.971C187.918 484.214 191.114 487.411 191.114 491.357V496.714C191.114 503.625 185.525 509.214 178.614 509.214Z" stroke="#D0D0D4" stroke-width="1.5" stroke-linecap="round" stroke-linejoin="round"/>
<path d="M167.114 501.214C165.802 500.787 164.648 500.003 163.738 499.077C162.164 497.296 161.114 495.159 161.114 492.666C161.114 490.173 163.038 488.214 165.487 488.214H166.624C166.275 489.033 166.1 489.942 166.1 490.885V496.228C166.1 498.009 166.467 499.683 167.114 501.214Z" stroke="#D0D0D4" stroke-width="1.5" stroke-linecap="round" stroke-linejoin="round"/>
<path d="M189.114 501.214C190.426 500.787 191.581 500.003 192.49 499.077C194.065 497.296 195.114 495.159 195.114 492.666C195.114 490.173 193.19 488.214 190.741 488.214H189.604C189.954 489.033 190.129 489.942 190.129 490.885V496.228C190.129 498.009 189.761 499.683 189.114 501.214Z" stroke="#D0D0D4" stroke-width="1.5" stroke-linecap="round" stroke-linejoin="round"/>
<path d="M203.114 407.214V427.214" stroke="#D0D0D4" stroke-width="1.5" stroke-miterlimit="10" stroke-linecap="round" stroke-linejoin="round"/>
<path d="M204.114 409.214L212.519 412.714C215.944 414.114 215.944 416.514 212.727 418.114L204.114 422.214" stroke="#D0D0D4" stroke-width="1.5" stroke-miterlimit="10" stroke-linecap="round" stroke-linejoin="round"/>
<path d="M334.114 427.214H340.114C345.114 427.214 347.114 425.214 347.114 420.214V414.214C347.114 409.214 345.114 407.214 340.114 407.214H334.114C329.114 407.214 327.114 409.214 327.114 414.214V420.214C327.114 425.214 329.114 427.214 334.114 427.214Z" stroke="#D0D0D4" stroke-width="1.5" stroke-linecap="round" stroke-linejoin="round"/>
<path d="M340.614 415.214C341.443 415.214 342.114 414.543 342.114 413.714C342.114 412.886 341.443 412.214 340.614 412.214C339.786 412.214 339.114 412.886 339.114 413.714C339.114 414.543 339.786 415.214 340.614 415.214Z" stroke="#D0D0D4" stroke-width="1.5" stroke-miterlimit="10" stroke-linecap="round" stroke-linejoin="round"/>
<path d="M333.614 415.214C334.443 415.214 335.114 414.543 335.114 413.714C335.114 412.886 334.443 412.214 333.614 412.214C332.786 412.214 332.114 412.886 332.114 413.714C332.114 414.543 332.786 415.214 333.614 415.214Z" stroke="#D0D0D4" stroke-width="1.5" stroke-miterlimit="10" stroke-linecap="round" stroke-linejoin="round"/>
<path d="M334.014 418.214H341.214C341.714 418.214 342.114 418.584 342.114 419.047C342.114 421.353 340.104 423.214 337.614 423.214C335.124 423.214 333.114 421.353 333.114 419.047C333.114 418.584 333.514 418.214 334.014 418.214Z" stroke="#D0D0D4" stroke-width="1.5" stroke-miterlimit="10" stroke-linecap="round" stroke-linejoin="round"/>
<path d="M329.714 295.214H334.514C338.514 295.214 340.114 293.614 340.114 289.614V284.814C340.114 280.814 338.514 279.214 334.514 279.214H329.714C325.714 279.214 324.114 280.814 324.114 284.814V289.614C324.114 293.614 325.714 295.214 329.714 295.214Z" stroke="#D0D0D4" stroke-width="1.5" stroke-linecap="round" stroke-linejoin="round"/>
<path d="M330.614 292.214H333.614C336.114 292.214 337.114 291.214 337.114 288.714V285.714C337.114 283.214 336.114 282.214 333.614 282.214H330.614C328.114 282.214 327.114 283.214 327.114 285.714V288.714C327.114 291.214 328.114 292.214 330.614 292.214Z" stroke="#D0D0D4" stroke-width="1.5" stroke-linecap="round" stroke-linejoin="round"/>
<path d="M328.124 279.214V277.214" stroke="#D0D0D4" stroke-width="1.5" stroke-linecap="round" stroke-linejoin="round"/>
<path d="M332.114 279.214V277.214" stroke="#D0D0D4" stroke-width="1.5" stroke-linecap="round" stroke-linejoin="round"/>
<path d="M336.114 279.214V277.214" stroke="#D0D0D4" stroke-width="1.5" stroke-linecap="round" stroke-linejoin="round"/>
<path d="M340.114 283.214H342.114" stroke="#D0D0D4" stroke-width="1.5" stroke-linecap="round" stroke-linejoin="round"/>
<path d="M340.114 287.214H342.114" stroke="#D0D0D4" stroke-width="1.5" stroke-linecap="round" stroke-linejoin="round"/>
<path d="M340.114 291.214H342.114" stroke="#D0D0D4" stroke-width="1.5" stroke-linecap="round" stroke-linejoin="round"/>
<path d="M336.114 295.214V297.214" stroke="#D0D0D4" stroke-width="1.5" stroke-linecap="round" stroke-linejoin="round"/>
<path d="M332.124 295.214V297.214" stroke="#D0D0D4" stroke-width="1.5" stroke-linecap="round" stroke-linejoin="round"/>
<path d="M328.124 295.214V297.214" stroke="#D0D0D4" stroke-width="1.5" stroke-linecap="round" stroke-linejoin="round"/>
<path d="M322.114 283.214H324.114" stroke="#D0D0D4" stroke-width="1.5" stroke-linecap="round" stroke-linejoin="round"/>
<path d="M322.114 287.214H324.114" stroke="#D0D0D4" stroke-width="1.5" stroke-linecap="round" stroke-linejoin="round"/>
<path d="M322.114 291.214H324.114" stroke="#D0D0D4" stroke-width="1.5" stroke-linecap="round" stroke-linejoin="round"/>
<path d="M277.114 383.464V385.464" stroke="#D0D0D4" stroke-width="1.5" stroke-linecap="round" stroke-linejoin="round"/>
<path d="M281.114 383.464V385.464" stroke="#D0D0D4" stroke-width="1.5" stroke-linecap="round" stroke-linejoin="round"/>
<path d="M280.114 399.214H286.114C291.114 399.214 293.114 397.214 293.114 392.214V386.214C293.114 381.214 291.114 379.214 286.114 379.214H280.114C275.114 379.214 273.114 381.214 273.114 386.214V392.214C273.114 397.214 275.114 399.214 280.114 399.214Z" stroke="#D0D0D4" stroke-width="1.5" stroke-linecap="round" stroke-linejoin="round"/>
<path d="M277.114 393.214V395.214" stroke="#D0D0D4" stroke-width="1.5" stroke-linecap="round" stroke-linejoin="round"/>
<path d="M281.114 393.214V395.214" stroke="#D0D0D4" stroke-width="1.5" stroke-linecap="round" stroke-linejoin="round"/>
<path d="M285.114 384.464H289.114" stroke="#D0D0D4" stroke-width="1.5" stroke-linecap="round" stroke-linejoin="round"/>
<path d="M285.114 394.214H289.114" stroke="#D0D0D4" stroke-width="1.5" stroke-linecap="round" stroke-linejoin="round"/>
<path d="M273.114 389.214H293.114" stroke="#D0D0D4" stroke-width="1.5" stroke-linecap="round" stroke-linejoin="round"/>
<path d="M181.704 306.774L188.324 300.704C188.604 300.454 188.594 300.054 188.304 299.814L186.244 298.094C185.704 297.644 185.274 297.854 185.274 298.554V307.884C185.274 308.584 185.714 308.784 186.244 308.344L188.304 306.624C188.594 306.384 188.604 305.984 188.324 305.734L181.704 299.664" stroke="#D0D0D4" stroke-width="1.5" stroke-miterlimit="10" stroke-linecap="round" stroke-linejoin="round"/>
<path d="M185.114 313.214C190.637 313.214 195.114 308.737 195.114 303.214C195.114 297.691 190.637 293.214 185.114 293.214C179.591 293.214 175.114 297.691 175.114 303.214C175.114 308.737 179.591 313.214 185.114 313.214Z" stroke="#D0D0D4" stroke-width="1.5" stroke-miterlimit="10" stroke-linecap="round" stroke-linejoin="round"/>
<path d="M252.754 482.854L265.104 471.534C265.614 471.064 265.604 470.314 265.064 469.864L261.214 466.654C260.214 465.824 259.394 466.204 259.394 467.504V484.924C259.394 486.224 260.214 486.604 261.214 485.774L265.064 482.564C265.604 482.114 265.614 481.364 265.104 480.894L252.754 469.574" stroke="#D0D0D4" stroke-width="1.5" stroke-miterlimit="10" stroke-linecap="round" stroke-linejoin="round"/>
<path d="M253.114 477.214C253.667 477.214 254.114 476.766 254.114 476.214C254.114 475.662 253.667 475.214 253.114 475.214C252.562 475.214 252.114 475.662 252.114 476.214C252.114 476.766 252.562 477.214 253.114 477.214Z" stroke="#D0D0D4" stroke-width="1.5" stroke-miterlimit="10" stroke-linecap="round" stroke-linejoin="round"/>
<path d="M267.114 477.214C267.667 477.214 268.114 476.766 268.114 476.214C268.114 475.662 267.667 475.214 267.114 475.214C266.562 475.214 266.114 475.662 266.114 476.214C266.114 476.766 266.562 477.214 267.114 477.214Z" stroke="#D0D0D4" stroke-width="1.5" stroke-miterlimit="10" stroke-linecap="round" stroke-linejoin="round"/>
<path d="M133.704 438.774L140.324 432.704C140.604 432.454 140.594 432.054 140.304 431.814L138.244 430.094C137.704 429.644 137.274 429.854 137.274 430.554V439.884C137.274 440.584 137.714 440.784 138.244 440.344L140.304 438.624C140.594 438.384 140.604 437.984 140.324 437.734L133.704 431.664" stroke="#D0D0D4" stroke-width="1.5" stroke-miterlimit="10" stroke-linecap="round" stroke-linejoin="round"/>
<path d="M140.114 445.214H134.114C131.114 445.214 129.114 443.214 129.114 440.214V430.214C129.114 427.214 131.114 425.214 134.114 425.214H140.114C143.114 425.214 145.114 427.214 145.114 430.214V440.214C145.114 443.214 143.114 445.214 140.114 445.214Z" stroke="#D0D0D4" stroke-width="1.5" stroke-miterlimit="10" stroke-linecap="round" stroke-linejoin="round"/>
<path d="M39.2243 369.064C36.4043 369.264 36.4143 373.364 39.2243 373.564H45.8943C46.7043 373.574 47.4843 373.264 48.0843 372.724C50.0643 370.994 49.0043 367.524 46.4043 367.194C45.4743 361.554 37.3243 363.694 39.2543 369.064" stroke="#D0D0D4" stroke-width="1.5" stroke-miterlimit="10" stroke-linecap="round" stroke-linejoin="round"/>
<path d="M33.1143 372.214C33.1143 376.084 36.2443 379.214 40.1143 379.214L39.0643 377.464" stroke="#D0D0D4" stroke-width="1.5" stroke-linecap="round" stroke-linejoin="round"/>
<path d="M53.1143 366.214C53.1143 362.344 49.9843 359.214 46.1143 359.214L47.1642 360.964" stroke="#D0D0D4" stroke-width="1.5" stroke-linecap="round" stroke-linejoin="round"/>
<path d="M23.6843 226.674L20.6343 229.724" stroke="#D0D0D4" stroke-width="1.5" stroke-miterlimit="10" stroke-linecap="round" stroke-linejoin="round"/>
<path d="M20.6643 226.704L23.7143 229.754" stroke="#D0D0D4" stroke-width="1.5" stroke-miterlimit="10" stroke-linecap="round" stroke-linejoin="round"/>
<path d="M27.6443 228.214H27.6543" stroke="#D0D0D4" stroke-width="2" stroke-miterlimit="10" stroke-linecap="round" stroke-linejoin="round"/>
<path d="M31.5842 228.214H31.5942" stroke="#D0D0D4" stroke-width="2" stroke-miterlimit="10" stroke-linecap="round" stroke-linejoin="round"/>
<path d="M29.6143 230.194V230.174" stroke="#D0D0D4" stroke-width="2" stroke-miterlimit="10" stroke-linecap="round" stroke-linejoin="round"/>
<path d="M29.6143 226.254V226.234" stroke="#D0D0D4" stroke-width="2" stroke-miterlimit="10" stroke-linecap="round" stroke-linejoin="round"/>
<path d="M23.1143 236.214H29.1143C34.1143 236.214 36.1143 234.214 36.1143 229.214V227.214C36.1143 222.214 34.1143 220.214 29.1143 220.214H23.1143C18.1143 220.214 16.1143 222.214 16.1143 227.214V229.214C16.1143 234.214 18.1143 236.214 23.1143 236.214Z" stroke="#D0D0D4" stroke-width="1.5" stroke-linecap="round" stroke-linejoin="round"/>
<path d="M27.1242 216.214L27.1142 217.224C27.1042 217.774 26.6642 218.214 26.1142 218.214H26.0842C25.5342 218.214 25.0942 218.664 25.0942 219.214C25.0942 219.764 25.5442 220.214 26.0942 220.214H27.0942" stroke="#D0D0D4" stroke-width="1.5" stroke-linecap="round" stroke-linejoin="round"/>
<path d="M357.714 119.214H362.514C366.514 119.214 368.114 117.614 368.114 113.614V108.814C368.114 104.814 366.514 103.214 362.514 103.214H357.714C353.714 103.214 352.114 104.814 352.114 108.814V113.614C352.114 117.614 353.714 119.214 357.714 119.214Z" stroke="#D0D0D4" stroke-width="1.5" stroke-linecap="round" stroke-linejoin="round"/>
<path d="M358.614 116.214H361.614C364.114 116.214 365.114 115.214 365.114 112.714V109.714C365.114 107.214 364.114 106.214 361.614 106.214H358.614C356.114 106.214 355.114 107.214 355.114 109.714V112.714C355.114 115.214 356.114 116.214 358.614 116.214Z" stroke="#D0D0D4" stroke-width="1.5" stroke-linecap="round" stroke-linejoin="round"/>
<path d="M356.124 103.214V101.214" stroke="#D0D0D4" stroke-width="1.5" stroke-linecap="round" stroke-linejoin="round"/>
<path d="M360.114 103.214V101.214" stroke="#D0D0D4" stroke-width="1.5" stroke-linecap="round" stroke-linejoin="round"/>
<path d="M364.114 103.214V101.214" stroke="#D0D0D4" stroke-width="1.5" stroke-linecap="round" stroke-linejoin="round"/>
<path d="M368.114 107.214H370.114" stroke="#D0D0D4" stroke-width="1.5" stroke-linecap="round" stroke-linejoin="round"/>
<path d="M368.114 111.214H370.114" stroke="#D0D0D4" stroke-width="1.5" stroke-linecap="round" stroke-linejoin="round"/>
<path d="M368.114 115.214H370.114" stroke="#D0D0D4" stroke-width="1.5" stroke-linecap="round" stroke-linejoin="round"/>
<path d="M364.114 119.214V121.214" stroke="#D0D0D4" stroke-width="1.5" stroke-linecap="round" stroke-linejoin="round"/>
<path d="M360.124 119.214V121.214" stroke="#D0D0D4" stroke-width="1.5" stroke-linecap="round" stroke-linejoin="round"/>
<path d="M356.124 119.214V121.214" stroke="#D0D0D4" stroke-width="1.5" stroke-linecap="round" stroke-linejoin="round"/>
<path d="M350.114 107.214H352.114" stroke="#D0D0D4" stroke-width="1.5" stroke-linecap="round" stroke-linejoin="round"/>
<path d="M350.114 111.214H352.114" stroke="#D0D0D4" stroke-width="1.5" stroke-linecap="round" stroke-linejoin="round"/>
<path d="M350.114 115.214H352.114" stroke="#D0D0D4" stroke-width="1.5" stroke-linecap="round" stroke-linejoin="round"/>
<path d="M360.114 108.914L359.174 110.554C358.964 110.914 359.134 111.214 359.554 111.214H360.674C361.094 111.214 361.264 111.514 361.054 111.874L360.114 113.514" stroke="#D0D0D4" stroke-width="1.5" stroke-linecap="round" stroke-linejoin="round"/>
<path d="M195.114 86.8141C195.114 82.8141 193.514 81.2141 189.514 81.2141H184.714C180.714 81.2141 179.114 82.8141 179.114 86.8141V91.6141C179.114 95.6141 180.714 97.2141 184.714 97.2141" stroke="#D0D0D4" stroke-width="1.5" stroke-linecap="round" stroke-linejoin="round"/>
<path d="M191.464 85.2141C190.914 84.5141 189.994 84.2141 188.614 84.2141H185.614C183.114 84.2141 182.114 85.2141 182.114 87.7141V90.7141C182.114 92.0941 182.414 93.0141 183.104 93.5641" stroke="#D0D0D4" stroke-width="1.5" stroke-linecap="round" stroke-linejoin="round"/>
<path d="M183.124 81.2141V79.2141" stroke="#D0D0D4" stroke-width="1.5" stroke-linecap="round" stroke-linejoin="round"/>
<path d="M187.114 81.2141V79.2141" stroke="#D0D0D4" stroke-width="1.5" stroke-linecap="round" stroke-linejoin="round"/>
<path d="M191.114 81.2141V79.2141" stroke="#D0D0D4" stroke-width="1.5" stroke-linecap="round" stroke-linejoin="round"/>
<path d="M195.114 85.2141H197.114" stroke="#D0D0D4" stroke-width="1.5" stroke-linecap="round" stroke-linejoin="round"/>
<path d="M183.124 97.2141V99.2141" stroke="#D0D0D4" stroke-width="1.5" stroke-linecap="round" stroke-linejoin="round"/>
<path d="M177.114 85.2141H179.114" stroke="#D0D0D4" stroke-width="1.5" stroke-linecap="round" stroke-linejoin="round"/>
<path d="M177.114 89.2141H179.114" stroke="#D0D0D4" stroke-width="1.5" stroke-linecap="round" stroke-linejoin="round"/>
<path d="M177.114 93.2141H179.114" stroke="#D0D0D4" stroke-width="1.5" stroke-linecap="round" stroke-linejoin="round"/>
<path d="M191.824 95.8041C192.703 95.8041 193.414 95.0923 193.414 94.2141C193.414 93.336 192.703 92.6241 191.824 92.6241C190.946 92.6241 190.234 93.336 190.234 94.2141C190.234 95.0923 190.946 95.8041 191.824 95.8041Z" stroke="#D0D0D4" stroke-width="1.5" stroke-miterlimit="10" stroke-linecap="round" stroke-linejoin="round"/>
<path d="M186.524 94.6741V93.7441C186.524 93.1941 186.974 92.7441 187.524 92.7441C188.484 92.7441 188.874 92.0641 188.394 91.2341C188.114 90.7541 188.284 90.1341 188.764 89.8641L189.674 89.3341C190.094 89.0841 190.634 89.2341 190.884 89.6541L190.944 89.7541C191.424 90.5841 192.204 90.5841 192.684 89.7541L192.744 89.6541C192.994 89.2341 193.534 89.0941 193.954 89.3341L194.864 89.8641C195.344 90.1441 195.514 90.7541 195.234 91.2341C194.754 92.0641 195.144 92.7441 196.104 92.7441C196.654 92.7441 197.104 93.1941 197.104 93.7441V94.6741C197.104 95.2241 196.654 95.6741 196.104 95.6741C195.144 95.6741 194.754 96.3541 195.234 97.1841C195.514 97.6641 195.344 98.2841 194.864 98.5541L193.954 99.0841C193.534 99.3341 192.994 99.1841 192.744 98.7641L192.684 98.6641C192.204 97.8341 191.424 97.8341 190.944 98.6641L190.884 98.7641C190.634 99.1841 190.094 99.3241 189.674 99.0841L188.764 98.5541C188.284 98.2741 188.114 97.6641 188.394 97.1841C188.874 96.3541 188.484 95.6741 187.524 95.6741C186.974 95.6841 186.524 95.2341 186.524 94.6741Z" stroke="#D0D0D4" stroke-width="1.5" stroke-miterlimit="10" stroke-linecap="round" stroke-linejoin="round"/>
<path d="M28.3643 30.2141H37.8643V28.2141C37.8643 26.2141 37.1143 25.2141 34.8643 25.2141H31.3643C29.1143 25.2141 28.3643 26.2141 28.3643 28.2141V30.2141Z" stroke="#D0D0D4" stroke-width="1.5" stroke-miterlimit="10" stroke-linecap="round" stroke-linejoin="round"/>
<path d="M34.0843 38.2141H37.1143V42.2141C37.1143 44.2141 36.1143 45.2141 34.1143 45.2141H32.1143C30.4243 45.2141 29.4443 44.5041 29.1843 43.0741" stroke="#D0D0D4" stroke-width="1.5" stroke-miterlimit="10" stroke-linecap="round" stroke-linejoin="round"/>
<path d="M27.1143 41.2141C25.1143 41.2141 24.1143 40.2141 24.1143 38.2141V33.2141C24.1143 31.2141 25.1143 30.2141 27.1143 30.2141H37.7043" stroke="#D0D0D4" stroke-width="1.5" stroke-miterlimit="10" stroke-linecap="round" stroke-linejoin="round"/>
<path d="M41.0843 30.7341C41.7743 31.2141 42.1143 32.0441 42.1143 33.2141V38.2141C42.1143 40.2141 41.1143 41.2141 39.1143 41.2141H37.1143V38.2141H34.1143" stroke="#D0D0D4" stroke-width="1.5" stroke-miterlimit="10" stroke-linecap="round" stroke-linejoin="round"/>
<path d="M38.1143 38.2141H36.9043" stroke="#D0D0D4" stroke-width="1.5" stroke-miterlimit="10" stroke-linecap="round" stroke-linejoin="round"/>
<path d="M28.1143 34.2141H30.1143" stroke="#D0D0D4" stroke-width="1.5" stroke-miterlimit="10" stroke-linecap="round" stroke-linejoin="round"/>
<path d="M43.1143 25.2141L23.1143 45.2141" stroke="#D0D0D4" stroke-width="1.5" stroke-linecap="round" stroke-linejoin="round"/>
<path d="M130.114 190.214V189.214C130.114 186.214 132.114 184.214 135.114 184.214H145.114C148.114 184.214 150.114 186.214 150.114 189.214V197.214C150.114 200.214 148.114 202.214 145.114 202.214H144.114" stroke="#D0D0D4" stroke-width="1.5" stroke-linecap="round" stroke-linejoin="round"/>
<path d="M131.804 192.924C136.424 193.514 139.814 196.914 140.414 201.534" stroke="#D0D0D4" stroke-width="1.5" stroke-linecap="round" stroke-linejoin="round"/>
<path d="M130.734 196.284C134.124 196.714 136.614 199.214 137.054 202.604" stroke="#D0D0D4" stroke-width="1.5" stroke-linecap="round" stroke-linejoin="round"/>
<path d="M130.094 200.074C131.784 200.294 133.034 201.534 133.254 203.234" stroke="#D0D0D4" stroke-width="1.5" stroke-linecap="round" stroke-linejoin="round"/>
<path d="M19.1443 440.984L24.8043 437.194C25.3743 436.814 25.5243 436.034 25.1443 435.474L23.3243 432.764C22.9443 432.194 22.1643 432.044 21.6043 432.424L15.9443 436.214L19.1443 440.984Z" stroke="#D0D0D4" stroke-width="1.5" stroke-linecap="round" stroke-linejoin="round"/>
<path d="M16.2882 436.693L11.5105 439.893L14.0704 443.715L18.8481 440.515L16.2882 436.693Z" stroke="#D0D0D4" stroke-width="1.5" stroke-linecap="round" stroke-linejoin="round"/>
<path d="M9.9443 446.114L13.8943 443.474L11.6543 440.134L7.70429 442.774C7.24429 443.084 7.1243 443.704 7.4343 444.164L8.5643 445.844C8.8643 446.294 9.4843 446.414 9.9443 446.114Z" stroke="#D0D0D4" stroke-width="1.5" stroke-linecap="round" stroke-linejoin="round"/>
<path d="M16.1643 442.414L11.6743 452.214" stroke="#D0D0D4" stroke-width="1.5" stroke-linecap="round" stroke-linejoin="round"/>
<path d="M16.1143 442.414L20.5543 452.214" stroke="#D0D0D4" stroke-width="1.5" stroke-linecap="round" stroke-linejoin="round"/>
<path d="M119.114 485.214V495.214C119.114 499.214 118.114 500.214 114.114 500.214H108.114C104.114 500.214 103.114 499.214 103.114 495.214V485.214C103.114 481.214 104.114 480.214 108.114 480.214H114.114C118.114 480.214 119.114 481.214 119.114 485.214Z" stroke="#D0D0D4" stroke-width="1.5" stroke-linecap="round" stroke-linejoin="round"/>
<path d="M113.114 483.714H109.114" stroke="#D0D0D4" stroke-width="1.5" stroke-linecap="round" stroke-linejoin="round"/>
<path d="M111.114 497.314C111.97 497.314 112.664 496.62 112.664 495.764C112.664 494.908 111.97 494.214 111.114 494.214C110.258 494.214 109.564 494.908 109.564 495.764C109.564 496.62 110.258 497.314 111.114 497.314Z" stroke="#D0D0D4" stroke-width="1.5" stroke-linecap="round" stroke-linejoin="round"/>
<path d="M82.6543 334.334C77.9743 334.664 77.9743 341.474 82.6543 341.804H84.5743" stroke="#D0D0D4" stroke-width="1.5" stroke-miterlimit="10" stroke-linecap="round" stroke-linejoin="round"/>
<path d="M82.7043 334.334C79.4943 325.404 93.0342 321.834 94.5842 331.214C98.9142 331.764 100.664 337.534 97.3843 340.404C96.3843 341.314 95.0943 341.814 93.7443 341.804H93.6542" stroke="#D0D0D4" stroke-width="1.5" stroke-miterlimit="10" stroke-linecap="round" stroke-linejoin="round"/>
<path d="M94.1143 339.744C94.1143 340.484 93.9542 341.184 93.6542 341.804C93.5742 341.984 93.4843 342.154 93.3843 342.314C92.5243 343.764 90.9343 344.744 89.1143 344.744C87.2943 344.744 85.7042 343.764 84.8442 342.314C84.7442 342.154 84.6543 341.984 84.5743 341.804C84.2743 341.184 84.1143 340.484 84.1143 339.744C84.1143 336.984 86.3543 334.744 89.1143 334.744C91.8743 334.744 94.1143 336.984 94.1143 339.744Z" stroke="#D0D0D4" stroke-width="1.5" stroke-miterlimit="10" stroke-linecap="round" stroke-linejoin="round"/>
<path d="M87.5542 339.744L88.5442 340.734L90.6742 338.764" stroke="#D0D0D4" stroke-width="1.5" stroke-linecap="round" stroke-linejoin="round"/>
<path d="M273.084 196.824L270.974 194.714" stroke="#D0D0D4" stroke-width="1.5" stroke-miterlimit="10" stroke-linecap="round" stroke-linejoin="round"/>
<path d="M273.064 194.734L270.944 196.854" stroke="#D0D0D4" stroke-width="1.5" stroke-miterlimit="10" stroke-linecap="round" stroke-linejoin="round"/>
<path d="M265.654 190.334C260.974 190.664 260.974 197.474 265.654 197.804H267.574" stroke="#D0D0D4" stroke-width="1.5" stroke-miterlimit="10" stroke-linecap="round" stroke-linejoin="round"/>
<path d="M265.704 190.334C262.494 181.404 276.034 177.834 277.584 187.214C281.914 187.764 283.664 193.534 280.384 196.404C279.384 197.314 278.094 197.814 276.744 197.804H276.654" stroke="#D0D0D4" stroke-width="1.5" stroke-miterlimit="10" stroke-linecap="round" stroke-linejoin="round"/>
<path d="M277.114 195.744C277.114 196.484 276.954 197.184 276.654 197.804C276.574 197.984 276.484 198.154 276.384 198.314C275.524 199.764 273.934 200.744 272.114 200.744C270.294 200.744 268.704 199.764 267.844 198.314C267.744 198.154 267.654 197.984 267.574 197.804C267.274 197.184 267.114 196.484 267.114 195.744C267.114 192.984 269.354 190.744 272.114 190.744C274.874 190.744 277.114 192.984 277.114 195.744Z" stroke="#D0D0D4" stroke-width="1.5" stroke-miterlimit="10" stroke-linecap="round" stroke-linejoin="round"/>
<path d="M371.114 186.464V188.464" stroke="#D0D0D4" stroke-width="1.5" stroke-linecap="round" stroke-linejoin="round"/>
<path d="M387.114 192.214V189.214C387.114 184.214 385.114 182.214 380.114 182.214H374.114C369.114 182.214 367.114 184.214 367.114 189.214V195.214C367.114 200.214 369.114 202.214 374.114 202.214H377.114" stroke="#D0D0D4" stroke-width="1.5" stroke-linecap="round" stroke-linejoin="round"/>
<path d="M375.114 186.464V188.464" stroke="#D0D0D4" stroke-width="1.5" stroke-linecap="round" stroke-linejoin="round"/>
<path d="M371.114 196.214V198.214" stroke="#D0D0D4" stroke-width="1.5" stroke-linecap="round" stroke-linejoin="round"/>
<path d="M375.114 196.214V198.214" stroke="#D0D0D4" stroke-width="1.5" stroke-linecap="round" stroke-linejoin="round"/>
<path d="M379.114 187.464H383.114" stroke="#D0D0D4" stroke-width="1.5" stroke-linecap="round" stroke-linejoin="round"/>
<path d="M367.114 192.214H387.114" stroke="#D0D0D4" stroke-width="1.5" stroke-linecap="round" stroke-linejoin="round"/>
<path d="M386.674 200.544C386.114 201.514 385.064 202.164 383.864 202.164C382.074 202.164 380.974 200.364 380.974 200.364M381.044 197.304C381.604 196.324 382.654 195.674 383.864 195.674C386.034 195.674 387.114 197.474 387.114 197.474M387.114 195.464V197.464H385.114M382.974 200.354H380.974V202.214" stroke="#D0D0D4" stroke-width="1.5" stroke-linecap="round" stroke-linejoin="round"/>
<path d="M377.614 319.217H380.614C383.114 319.217 384.614 317.417 384.614 315.217V310.127C384.614 309.077 383.754 308.217 382.704 308.217H375.534C374.484 308.217 373.624 309.077 373.624 310.127V315.217C373.614 317.417 375.114 319.217 377.614 319.217Z" stroke="#D0D0D4" stroke-width="1.5" stroke-linecap="round" stroke-linejoin="round"/>
<path d="M376.614 305.217V308.217" stroke="#D0D0D4" stroke-width="1.5" stroke-linecap="round" stroke-linejoin="round"/>
<path d="M381.614 305.217V308.217" stroke="#D0D0D4" stroke-width="1.5" stroke-linecap="round" stroke-linejoin="round"/>
<path d="M379.114 325.217V319.217" stroke="#D0D0D4" stroke-width="1.5" stroke-linecap="round" stroke-linejoin="round"/>
<path d="M383.554 449.314H394.664C398.224 449.314 399.114 450.204 399.114 453.754V460.084C399.114 463.644 398.224 464.524 394.674 464.524H383.554C380.004 464.534 379.114 463.644 379.114 460.094V453.754C379.114 450.204 380.004 449.314 383.554 449.314Z" stroke="#D0D0D4" stroke-width="1.5" stroke-linecap="round" stroke-linejoin="round"/>
<path d="M389.114 464.534V469.314" stroke="#D0D0D4" stroke-width="1.5" stroke-linecap="round" stroke-linejoin="round"/>
<path d="M379.114 460.314H399.114" stroke="#D0D0D4" stroke-width="1.5" stroke-linecap="round" stroke-linejoin="round"/>
<path d="M384.614 469.314H393.614" stroke="#D0D0D4" stroke-width="1.5" stroke-linecap="round" stroke-linejoin="round"/>
<path d="M275.654 512.754L272.584 509.684C271.644 508.744 270.374 508.224 269.044 508.224H264.114C261.114 508.224 259.114 510.224 259.114 513.224V523.224C259.114 526.224 261.114 528.224 264.114 528.224H272.114C275.114 528.224 277.114 526.224 277.114 523.224V516.294C277.114 514.954 276.584 513.684 275.654 512.754Z" stroke="#D0D0D4" stroke-width="1.5" stroke-linecap="round" stroke-linejoin="round"/>
<path d="M265.614 520.214L263.614 522.214L265.614 524.214" stroke="#D0D0D4" stroke-width="1.5" stroke-linecap="round" stroke-linejoin="round"/>
<path d="M270.614 520.214L272.614 522.214L270.614 524.214" stroke="#D0D0D4" stroke-width="1.5" stroke-linecap="round" stroke-linejoin="round"/>
<path d="M64.1143 147.214H68.1143C73.1143 147.214 75.1143 145.214 75.1143 140.214V134.214C75.1143 129.214 73.1143 127.214 68.1143 127.214H64.1143C59.1143 127.214 57.1143 129.214 57.1143 134.214V140.214C57.1143 145.214 59.1143 147.214 64.1143 147.214Z" stroke="#D0D0D4" stroke-width="1.5" stroke-linecap="round" stroke-linejoin="round"/>
<path d="M71.3643 133.504C68.3743 130.844 63.8543 130.844 60.8643 133.504L63.0443 137.004C64.7943 135.444 67.4343 135.444 69.1843 137.004L71.3643 133.504Z" stroke="#D0D0D4" stroke-width="1.5" stroke-linecap="round" stroke-linejoin="round"/>
<path d="M314.364 28.2141H323.864V26.2141C323.864 24.2141 323.114 23.2141 320.864 23.2141H317.364C315.114 23.2141 314.364 24.2141 314.364 26.2141V28.2141Z" stroke="#D0D0D4" stroke-width="1.5" stroke-miterlimit="10" stroke-linecap="round" stroke-linejoin="round"/>
<path d="M323.114 36.2141V40.2141C323.114 42.2141 322.114 43.2141 320.114 43.2141H318.114C316.114 43.2141 315.114 42.2141 315.114 40.2141V36.2141H323.114Z" stroke="#D0D0D4" stroke-width="1.5" stroke-miterlimit="10" stroke-linecap="round" stroke-linejoin="round"/>
<path d="M328.114 31.2141V36.2141C328.114 38.2141 327.114 39.2141 325.114 39.2141H323.114V36.2141H315.114V39.2141H313.114C311.114 39.2141 310.114 38.2141 310.114 36.2141V31.2141C310.114 29.2141 311.114 28.2141 313.114 28.2141H325.114C327.114 28.2141 328.114 29.2141 328.114 31.2141Z" stroke="#D0D0D4" stroke-width="1.5" stroke-miterlimit="10" stroke-linecap="round" stroke-linejoin="round"/>
<path d="M324.114 36.2141H322.904H314.114" stroke="#D0D0D4" stroke-width="1.5" stroke-miterlimit="10" stroke-linecap="round" stroke-linejoin="round"/>
<path d="M314.114 32.2141H317.114" stroke="#D0D0D4" stroke-width="1.5" stroke-miterlimit="10" stroke-linecap="round" stroke-linejoin="round"/>
<path d="M192.114 167.214H185.114C182.114 167.214 180.114 165.214 180.114 162.214V152.214C180.114 149.214 182.114 147.214 185.114 147.214H192.114C195.114 147.214 197.114 149.214 197.114 152.214V162.214C197.114 165.214 195.114 167.214 192.114 167.214Z" stroke="#D0D0D4" stroke-width="1.5" stroke-linecap="round" stroke-linejoin="round"/>
<path d="M180.114 160.214H197.114" stroke="#D0D0D4" stroke-width="1.5" stroke-linecap="round" stroke-linejoin="round"/>
<path d="M183.114 157.214H184.114" stroke="#D0D0D4" stroke-width="1.5" stroke-linecap="round" stroke-linejoin="round"/>
<path d="M183.114 154.714H184.114" stroke="#D0D0D4" stroke-width="1.5" stroke-linecap="round" stroke-linejoin="round"/>
<path d="M183.114 152.214H184.114" stroke="#D0D0D4" stroke-width="1.5" stroke-linecap="round" stroke-linejoin="round"/>
<path d="M192.609 163.464H192.618" stroke="#D0D0D4" stroke-width="2" stroke-linecap="round" stroke-linejoin="round"/>
<path d="M247.114 258.214V261.214" stroke="#D0D0D4" stroke-width="1.5" stroke-miterlimit="10" stroke-linecap="round" stroke-linejoin="round"/>
<path d="M247.114 265.214C248.219 265.214 249.114 264.319 249.114 263.214C249.114 262.11 248.219 261.214 247.114 261.214C246.01 261.214 245.114 262.11 245.114 263.214C245.114 264.319 246.01 265.214 247.114 265.214Z" stroke="#D0D0D4" stroke-width="1.5" stroke-miterlimit="10" stroke-linecap="round" stroke-linejoin="round"/>
<path d="M253.114 263.214H249.114" stroke="#D0D0D4" stroke-width="1.5" stroke-miterlimit="10" stroke-linecap="round" stroke-linejoin="round"/>
<path d="M245.114 263.214H241.114" stroke="#D0D0D4" stroke-width="1.5" stroke-miterlimit="10" stroke-linecap="round" stroke-linejoin="round"/>
<path d="M254.114 250.514V254.714C254.114 257.514 253.414 258.214 250.614 258.214H243.614C240.814 258.214 240.114 257.514 240.114 254.714V247.714C240.114 244.914 240.814 244.214 243.614 244.214H244.664C245.714 244.214 245.944 244.524 246.344 245.054L247.394 246.454C247.664 246.804 247.814 247.014 248.514 247.014H250.614C253.414 247.014 254.114 247.714 254.114 250.514Z" stroke="#D0D0D4" stroke-width="1.5" stroke-miterlimit="10"/>
<path d="M7.37424 87.2141H16.8442C17.4942 87.2141 18.0742 87.2341 18.5942 87.3041C21.3642 87.6141 22.1142 88.9141 22.1142 92.4741V98.7941C22.1142 102.354 21.3642 103.654 18.5942 103.964C18.0742 104.034 17.5042 104.054 16.8442 104.054H7.37424C6.72424 104.054 6.14424 104.034 5.62424 103.964C2.85424 103.654 2.10425 102.354 2.10425 98.7941V92.4741C2.10425 88.9141 2.85424 87.6141 5.62424 87.3041C6.14424 87.2341 6.72424 87.2141 7.37424 87.2141Z" stroke="#D0D0D4" stroke-width="1.5" stroke-linecap="round" stroke-linejoin="round"/>
<path d="M13.6943 93.5342H17.3743" stroke="#D0D0D4" stroke-width="1.5" stroke-linecap="round" stroke-linejoin="round"/>
<path d="M6.85425 99.3241H6.87424H17.3842" stroke="#D0D0D4" stroke-width="1.5" stroke-linecap="round" stroke-linejoin="round"/>
<path d="M7.11426 107.214H17.1143" stroke="#D0D0D4" stroke-width="1.5" stroke-linecap="round" stroke-linejoin="round"/>
<path d="M7.30896 93.5142H7.31794" stroke="#D0D0D4" stroke-width="2" stroke-linecap="round" stroke-linejoin="round"/>
<path d="M10.6088 93.5142H10.6177" stroke="#D0D0D4" stroke-width="2" stroke-linecap="round" stroke-linejoin="round"/>
<path d="M264.434 94.2141H249.804C248.324 94.2141 247.124 93.0041 247.124 91.5341V88.9041C247.124 87.4241 248.334 86.2241 249.804 86.2241H264.434C265.914 86.2241 267.114 87.4341 267.114 88.9041V91.5341C267.114 93.0041 265.904 94.2141 264.434 94.2141Z" stroke="#D0D0D4" stroke-width="1.5" stroke-linecap="round" stroke-linejoin="round"/>
<path d="M264.434 106.214H249.804C248.324 106.214 247.124 105.004 247.124 103.534V100.904C247.124 99.4241 248.334 98.2241 249.804 98.2241H264.434C265.914 98.2241 267.114 99.4341 267.114 100.904V103.534C267.114 105.004 265.904 106.214 264.434 106.214Z" stroke="#D0D0D4" stroke-width="1.5" stroke-linecap="round" stroke-linejoin="round"/>
<path d="M251.114 89.2141V91.2141" stroke="#D0D0D4" stroke-width="1.5" stroke-linecap="round" stroke-linejoin="round"/>
<path d="M255.114 89.2141V91.2141" stroke="#D0D0D4" stroke-width="1.5" stroke-linecap="round" stroke-linejoin="round"/>
<path d="M251.114 101.214V103.214" stroke="#D0D0D4" stroke-width="1.5" stroke-linecap="round" stroke-linejoin="round"/>
<path d="M255.114 101.214V103.214" stroke="#D0D0D4" stroke-width="1.5" stroke-linecap="round" stroke-linejoin="round"/>
<path d="M259.114 90.2141H263.114" stroke="#D0D0D4" stroke-width="1.5" stroke-linecap="round" stroke-linejoin="round"/>
<path d="M259.114 102.214H263.114" stroke="#D0D0D4" stroke-width="1.5" stroke-linecap="round" stroke-linejoin="round"/>
<path d="M176.114 38.2141C180.244 38.2141 183.614 34.8441 183.614 30.7141V25.7141C183.614 21.5841 180.244 18.2141 176.114 18.2141C171.984 18.2141 168.614 21.5841 168.614 25.7141V30.7141C168.614 34.8441 171.984 38.2141 176.114 38.2141Z" stroke="#D0D0D4" stroke-width="1.5" stroke-linecap="round" stroke-linejoin="round"/>
<path d="M176.114 27.2141C175.284 27.2141 174.614 26.5441 174.614 25.7141V23.7141C174.614 22.8841 175.284 22.2141 176.114 22.2141C176.934 22.2141 177.614 22.8841 177.614 23.7141V25.7141C177.614 26.5441 176.934 27.2141 176.114 27.2141Z" stroke="#D0D0D4" stroke-width="1.5" stroke-linecap="round" stroke-linejoin="round"/>
<path d="M176.114 22.2141V18.2141" stroke="#D0D0D4" stroke-width="1.5" stroke-linecap="round" stroke-linejoin="round"/>
</svg>
