<svg width="398" height="290" viewBox="0 0 398 290" fill="none" xmlns="http://www.w3.org/2000/svg">
<path d="M141 43C136.56 42.34 132.093 42 127.64 42C125 42 122.36 42.2 119.72 42.6L117 43" stroke="#D0D0D4" stroke-width="1.5" stroke-linecap="round" stroke-linejoin="round"/>
<path d="M124 42L124.283 40.2357C124.489 38.9562 124.643 38 126.816 38H130.184C132.357 38 132.524 39.0101 132.717 40.2492L133 42" stroke="#D0D0D4" stroke-width="1.5" stroke-linecap="round" stroke-linejoin="round"/>
<path d="M138 47L137.146 60.3118C137.001 62.3872 136.883 64 133.218 64H124.782C121.117 64 120.999 62.3872 120.854 60.3118L120 47" stroke="#D0D0D4" stroke-width="1.5" stroke-linecap="round" stroke-linejoin="round"/>
<path d="M127 57H131" stroke="#D0D0D4" stroke-width="1.5" stroke-linecap="round" stroke-linejoin="round"/>
<path d="M126 52H133" stroke="#D0D0D4" stroke-width="1.5" stroke-linecap="round" stroke-linejoin="round"/>
<path d="M131 144H125C121 144 120 143 120 139V135C120 131 121 130 125 130H131C135 130 136 131 136 135V139C136 143 135 144 131 144Z" stroke="#D0D0D4" stroke-width="1.5" stroke-linecap="round" stroke-linejoin="round"/>
<path d="M139 135C141 135 141 135.5 141 136.5V138.5C141 139.5 141 140 139 140" stroke="#D0D0D4" stroke-width="1.5" stroke-linecap="round" stroke-linejoin="round"/>
<path d="M79.25 99H68.75C61.75 99 60 97.2143 60 90.0714V82.9286C60 75.7857 61.75 74 68.75 74H79.25C86.25 74 88 75.7857 88 82.9286V90.0714C88 97.2143 86.25 99 79.25 99Z" stroke="#D0D0D4" stroke-width="1.5" stroke-linecap="round" stroke-linejoin="round"/>
<path d="M92 82C95 82 95 82.9 95 84.7V88.3C95 90.1 95 91 92 91" stroke="#D0D0D4" stroke-width="1.5" stroke-linecap="round" stroke-linejoin="round"/>
<path d="M67 83C67.5775 85.2925 67.5775 87.7075 67 90" stroke="#D0D0D4" stroke-width="1.5" stroke-linecap="round" stroke-linejoin="round"/>
<path d="M343 145C346 145 346 145.9 346 147.7V151.3C346 153.1 346 154 343 154" stroke="#D0D0D4" stroke-width="1.5" stroke-linecap="round" stroke-linejoin="round"/>
<path d="M318 146C318.578 148.292 318.578 150.708 318 153" stroke="#D0D0D4" stroke-width="1.5" stroke-linecap="round" stroke-linejoin="round"/>
<path d="M324 146C324.578 148.292 324.578 150.708 324 153" stroke="#D0D0D4" stroke-width="1.5" stroke-linecap="round" stroke-linejoin="round"/>
<path d="M330.25 162H319.75C312.75 162 311 160.214 311 153.071V145.929C311 138.786 312.75 137 319.75 137H330.25C337.25 137 339 138.786 339 145.929V153.071C339 160.214 337.25 162 330.25 162Z" stroke="#D0D0D4" stroke-width="1.5" stroke-linecap="round" stroke-linejoin="round"/>
<path d="M97 209C99 209 99 209.5 99 210.5V212.5C99 213.5 99 214 97 214" stroke="#D0D0D4" stroke-width="1.5" stroke-linecap="round" stroke-linejoin="round"/>
<path d="M82 209C82.33 210.31 82.33 211.69 82 213" stroke="#D0D0D4" stroke-width="1.5" stroke-linecap="round" stroke-linejoin="round"/>
<path d="M86 209C86.33 210.31 86.33 211.69 86 213" stroke="#D0D0D4" stroke-width="1.5" stroke-linecap="round" stroke-linejoin="round"/>
<path d="M89 209C89.33 210.31 89.33 211.69 89 213" stroke="#D0D0D4" stroke-width="1.5" stroke-linecap="round" stroke-linejoin="round"/>
<path d="M89 218H83C79 218 78 217 78 213V209C78 205 79 204 83 204H89C93 204 94 205 94 209V213C94 217 93 218 89 218Z" stroke="#D0D0D4" stroke-width="1.5" stroke-linecap="round" stroke-linejoin="round"/>
<path d="M245 142C247 142 247 142.5 247 143.5V145.5C247 146.5 247 147 245 147" stroke="#D0D0D4" stroke-width="1.5" stroke-linecap="round" stroke-linejoin="round"/>
<path d="M233.886 140L232.129 142.5C231.766 143.17 232.213 144 232.929 144H235.067C235.783 144 236.23 144.83 235.876 145.5L233.886 148" stroke="#D0D0D4" stroke-width="1.5" stroke-linecap="round" stroke-linejoin="round"/>
<path d="M231 151C227 151 226 150 226 146V142C226 138 227 137 231 137" stroke="#D0D0D4" stroke-width="1.5" stroke-linecap="round" stroke-linejoin="round"/>
<path d="M237 137C241 137 242 138 242 142V146C242 150 241 151 237 151" stroke="#D0D0D4" stroke-width="1.5" stroke-linecap="round" stroke-linejoin="round"/>
<path d="M17 178C22.5 178 27 173.5 27 168C27 162.5 22.5 158 17 158C11.5 158 7 162.5 7 168C7 173.5 11.5 178 17 178Z" stroke="#D0D0D4" stroke-width="1.5" stroke-linecap="round" stroke-linejoin="round"/>
<path d="M13 168H21" stroke="#D0D0D4" stroke-width="1.5" stroke-linecap="round" stroke-linejoin="round"/>
<path d="M17 172V164" stroke="#D0D0D4" stroke-width="1.5" stroke-linecap="round" stroke-linejoin="round"/>
<path d="M59 285C64.5 285 69 280.5 69 275C69 269.5 64.5 265 59 265C53.5 265 49 269.5 49 275C49 280.5 53.5 285 59 285Z" stroke="#D0D0D4" stroke-width="1.5" stroke-linecap="round" stroke-linejoin="round"/>
<path d="M55 275H63" stroke="#D0D0D4" stroke-width="1.5" stroke-linecap="round" stroke-linejoin="round"/>
<path d="M202.5 253C214.325 253 224 243.325 224 231.5C224 219.675 214.325 210 202.5 210C190.675 210 181 219.675 181 231.5C181 243.325 190.675 253 202.5 253Z" stroke="#D0D0D4" stroke-width="1.5" stroke-linecap="round" stroke-linejoin="round"/>
<path d="M197 238L209 226" stroke="#D0D0D4" stroke-width="1.5" stroke-linecap="round" stroke-linejoin="round"/>
<path d="M209 238L197 226" stroke="#D0D0D4" stroke-width="1.5" stroke-linecap="round" stroke-linejoin="round"/>
<path d="M316 231C321.5 231 326 226.5 326 221C326 215.5 321.5 211 316 211C310.5 211 306 215.5 306 221C306 226.5 310.5 231 316 231Z" stroke="#D0D0D4" stroke-width="1.5" stroke-linecap="round" stroke-linejoin="round"/>
<path d="M320.495 221.5H320.504" stroke="#D0D0D4" stroke-width="2" stroke-linecap="round" stroke-linejoin="round"/>
<path d="M316.495 221.5H316.504" stroke="#D0D0D4" stroke-width="2" stroke-linecap="round" stroke-linejoin="round"/>
<path d="M312.495 221.5H312.504" stroke="#D0D0D4" stroke-width="2" stroke-linecap="round" stroke-linejoin="round"/>
<path d="M318 88C323.5 88 328 83.5 328 78C328 72.5 323.5 68 318 68C312.5 68 308 72.5 308 78C308 83.5 312.5 88 318 88Z" stroke="#D0D0D4" stroke-width="1.5" stroke-linecap="round" stroke-linejoin="round"/>
<path d="M318 74V79" stroke="#D0D0D4" stroke-width="1.5" stroke-linecap="round" stroke-linejoin="round"/>
<path d="M318 82H318.009" stroke="#D0D0D4" stroke-width="2" stroke-linecap="round" stroke-linejoin="round"/>
<path d="M340 275V280" stroke="#D0D0D4" stroke-width="1.5" stroke-linecap="round" stroke-linejoin="round"/>
<path d="M340.001 287.99H333.94C330.47 287.99 329.019 285.487 330.7 282.429L333.82 276.758L336.76 271.43C338.541 268.19 341.461 268.19 343.241 271.43L346.182 276.768L349.302 282.44C350.982 285.497 349.522 288 346.062 288H340.001V287.99Z" stroke="#D0D0D4" stroke-width="1.5" stroke-linecap="round" stroke-linejoin="round"/>
<path d="M340 283H340.009" stroke="#D0D0D4" stroke-width="2" stroke-linecap="round" stroke-linejoin="round"/>
<path d="M383 60L389 54" stroke="#D0D0D4" stroke-width="1.5" stroke-linecap="round" stroke-linejoin="round"/>
<path d="M389 60L383 54" stroke="#D0D0D4" stroke-width="1.5" stroke-linecap="round" stroke-linejoin="round"/>
<path d="M383 67H389C394 67 396 65 396 60V54C396 49 394 47 389 47H383C378 47 376 49 376 54V60C376 65 378 67 383 67Z" stroke="#D0D0D4" stroke-width="1.5" stroke-linecap="round" stroke-linejoin="round"/>
<path d="M248 11C251.279 13.4862 253.541 17.439 254 22" stroke="#D0D0D4" stroke-width="1.5" stroke-linecap="round" stroke-linejoin="round"/>
<path d="M224 22C224.433 17.4569 226.7 13.5041 230 11" stroke="#D0D0D4" stroke-width="1.5" stroke-linecap="round" stroke-linejoin="round"/>
<path d="M232 37C233.984 38.2826 236.242 39 238.62 39C240.912 39 243.067 38.3478 245 37.1522" stroke="#D0D0D4" stroke-width="1.5" stroke-linecap="round" stroke-linejoin="round"/>
<path d="M239 14C241.761 14 244 11.7614 244 9C244 6.23858 241.761 4 239 4C236.239 4 234 6.23858 234 9C234 11.7614 236.239 14 239 14Z" stroke="#D0D0D4" stroke-width="1.5" stroke-linecap="round" stroke-linejoin="round"/>
<path d="M227 35C229.761 35 232 32.7614 232 30C232 27.2386 229.761 25 227 25C224.239 25 222 27.2386 222 30C222 32.7614 224.239 35 227 35Z" stroke="#D0D0D4" stroke-width="1.5" stroke-linecap="round" stroke-linejoin="round"/>
<path d="M252 35C254.761 35 257 32.7614 257 30C257 27.2386 254.761 25 252 25C249.239 25 247 27.2386 247 30C247 32.7614 249.239 35 252 35Z" stroke="#D0D0D4" stroke-width="1.5" stroke-linecap="round" stroke-linejoin="round"/>
<path d="M16.57 247.46L13.52 250.51" stroke="#D0D0D4" stroke-width="1.5" stroke-miterlimit="10" stroke-linecap="round" stroke-linejoin="round"/>
<path d="M13.5498 247.49L16.5998 250.54" stroke="#D0D0D4" stroke-width="1.5" stroke-miterlimit="10" stroke-linecap="round" stroke-linejoin="round"/>
<path d="M20.5298 249H20.5398" stroke="#D0D0D4" stroke-width="2" stroke-miterlimit="10" stroke-linecap="round" stroke-linejoin="round"/>
<path d="M24.4702 249H24.4802" stroke="#D0D0D4" stroke-width="2" stroke-miterlimit="10" stroke-linecap="round" stroke-linejoin="round"/>
<path d="M22.5 250.98V250.96" stroke="#D0D0D4" stroke-width="2" stroke-miterlimit="10" stroke-linecap="round" stroke-linejoin="round"/>
<path d="M22.5 247.04V247.02" stroke="#D0D0D4" stroke-width="2" stroke-miterlimit="10" stroke-linecap="round" stroke-linejoin="round"/>
<path d="M16 257H22C27 257 29 255 29 250V248C29 243 27 241 22 241H16C11 241 9 243 9 248V250C9 255 11 257 16 257Z" stroke="#D0D0D4" stroke-width="1.5" stroke-linecap="round" stroke-linejoin="round"/>
<path d="M20.01 237L20 238.01C19.99 238.56 19.55 239 19 239H18.97C18.42 239 17.98 239.45 17.98 240C17.98 240.55 18.43 241 18.98 241H19.98" stroke="#D0D0D4" stroke-width="1.5" stroke-linecap="round" stroke-linejoin="round"/>
<path d="M357.6 119H362.4C366.4 119 368 117.4 368 113.4V108.6C368 104.6 366.4 103 362.4 103H357.6C353.6 103 352 104.6 352 108.6V113.4C352 117.4 353.6 119 357.6 119Z" stroke="#D0D0D4" stroke-width="1.5" stroke-linecap="round" stroke-linejoin="round"/>
<path d="M358.5 116H361.5C364 116 365 115 365 112.5V109.5C365 107 364 106 361.5 106H358.5C356 106 355 107 355 109.5V112.5C355 115 356 116 358.5 116Z" stroke="#D0D0D4" stroke-width="1.5" stroke-linecap="round" stroke-linejoin="round"/>
<path d="M356.01 103V101" stroke="#D0D0D4" stroke-width="1.5" stroke-linecap="round" stroke-linejoin="round"/>
<path d="M360 103V101" stroke="#D0D0D4" stroke-width="1.5" stroke-linecap="round" stroke-linejoin="round"/>
<path d="M364 103V101" stroke="#D0D0D4" stroke-width="1.5" stroke-linecap="round" stroke-linejoin="round"/>
<path d="M368 107H370" stroke="#D0D0D4" stroke-width="1.5" stroke-linecap="round" stroke-linejoin="round"/>
<path d="M368 111H370" stroke="#D0D0D4" stroke-width="1.5" stroke-linecap="round" stroke-linejoin="round"/>
<path d="M368 115H370" stroke="#D0D0D4" stroke-width="1.5" stroke-linecap="round" stroke-linejoin="round"/>
<path d="M364 119V121" stroke="#D0D0D4" stroke-width="1.5" stroke-linecap="round" stroke-linejoin="round"/>
<path d="M360.01 119V121" stroke="#D0D0D4" stroke-width="1.5" stroke-linecap="round" stroke-linejoin="round"/>
<path d="M356.01 119V121" stroke="#D0D0D4" stroke-width="1.5" stroke-linecap="round" stroke-linejoin="round"/>
<path d="M350 107H352" stroke="#D0D0D4" stroke-width="1.5" stroke-linecap="round" stroke-linejoin="round"/>
<path d="M350 111H352" stroke="#D0D0D4" stroke-width="1.5" stroke-linecap="round" stroke-linejoin="round"/>
<path d="M350 115H352" stroke="#D0D0D4" stroke-width="1.5" stroke-linecap="round" stroke-linejoin="round"/>
<path d="M360 108.7L359.06 110.34C358.85 110.7 359.02 111 359.44 111H360.56C360.98 111 361.15 111.3 360.94 111.66L360 113.3" stroke="#D0D0D4" stroke-width="1.5" stroke-linecap="round" stroke-linejoin="round"/>
<path d="M195 86.6C195 82.6 193.4 81 189.4 81H184.6C180.6 81 179 82.6 179 86.6V91.4C179 95.4 180.6 97 184.6 97" stroke="#D0D0D4" stroke-width="1.5" stroke-linecap="round" stroke-linejoin="round"/>
<path d="M191.35 85C190.8 84.3 189.88 84 188.5 84H185.5C183 84 182 85 182 87.5V90.5C182 91.88 182.3 92.8 182.99 93.35" stroke="#D0D0D4" stroke-width="1.5" stroke-linecap="round" stroke-linejoin="round"/>
<path d="M183.01 81V79" stroke="#D0D0D4" stroke-width="1.5" stroke-linecap="round" stroke-linejoin="round"/>
<path d="M187 81V79" stroke="#D0D0D4" stroke-width="1.5" stroke-linecap="round" stroke-linejoin="round"/>
<path d="M191 81V79" stroke="#D0D0D4" stroke-width="1.5" stroke-linecap="round" stroke-linejoin="round"/>
<path d="M195 85H197" stroke="#D0D0D4" stroke-width="1.5" stroke-linecap="round" stroke-linejoin="round"/>
<path d="M183.01 97V99" stroke="#D0D0D4" stroke-width="1.5" stroke-linecap="round" stroke-linejoin="round"/>
<path d="M177 85H179" stroke="#D0D0D4" stroke-width="1.5" stroke-linecap="round" stroke-linejoin="round"/>
<path d="M177 89H179" stroke="#D0D0D4" stroke-width="1.5" stroke-linecap="round" stroke-linejoin="round"/>
<path d="M177 93H179" stroke="#D0D0D4" stroke-width="1.5" stroke-linecap="round" stroke-linejoin="round"/>
<path d="M191.71 95.59C192.588 95.59 193.3 94.8782 193.3 94C193.3 93.1219 192.588 92.41 191.71 92.41C190.832 92.41 190.12 93.1219 190.12 94C190.12 94.8782 190.832 95.59 191.71 95.59Z" stroke="#D0D0D4" stroke-width="1.5" stroke-miterlimit="10" stroke-linecap="round" stroke-linejoin="round"/>
<path d="M186.41 94.46V93.53C186.41 92.98 186.86 92.53 187.41 92.53C188.37 92.53 188.76 91.85 188.28 91.02C188 90.54 188.17 89.92 188.65 89.65L189.56 89.12C189.98 88.87 190.52 89.02 190.77 89.44L190.83 89.54C191.31 90.37 192.09 90.37 192.57 89.54L192.63 89.44C192.88 89.02 193.42 88.88 193.84 89.12L194.75 89.65C195.23 89.93 195.4 90.54 195.12 91.02C194.64 91.85 195.03 92.53 195.99 92.53C196.54 92.53 196.99 92.98 196.99 93.53V94.46C196.99 95.01 196.54 95.46 195.99 95.46C195.03 95.46 194.64 96.14 195.12 96.97C195.4 97.45 195.23 98.07 194.75 98.34L193.84 98.87C193.42 99.12 192.88 98.97 192.63 98.55L192.57 98.45C192.09 97.62 191.31 97.62 190.83 98.45L190.77 98.55C190.52 98.97 189.98 99.11 189.56 98.87L188.65 98.34C188.17 98.06 188 97.45 188.28 96.97C188.76 96.14 188.37 95.46 187.41 95.46C186.86 95.47 186.41 95.02 186.41 94.46Z" stroke="#D0D0D4" stroke-width="1.5" stroke-miterlimit="10" stroke-linecap="round" stroke-linejoin="round"/>
<path d="M28.25 30H37.75V28C37.75 26 37 25 34.75 25H31.25C29 25 28.25 26 28.25 28V30Z" stroke="#D0D0D4" stroke-width="1.5" stroke-miterlimit="10" stroke-linecap="round" stroke-linejoin="round"/>
<path d="M33.9698 38H36.9998V42C36.9998 44 35.9998 45 33.9998 45H31.9998C30.3098 45 29.3298 44.29 29.0698 42.86" stroke="#D0D0D4" stroke-width="1.5" stroke-miterlimit="10" stroke-linecap="round" stroke-linejoin="round"/>
<path d="M27 41C25 41 24 40 24 38V33C24 31 25 30 27 30H37.59" stroke="#D0D0D4" stroke-width="1.5" stroke-miterlimit="10" stroke-linecap="round" stroke-linejoin="round"/>
<path d="M40.97 30.52C41.66 31 42 31.83 42 33V38C42 40 41 41 39 41H37V38H34" stroke="#D0D0D4" stroke-width="1.5" stroke-miterlimit="10" stroke-linecap="round" stroke-linejoin="round"/>
<path d="M38 38H36.79" stroke="#D0D0D4" stroke-width="1.5" stroke-miterlimit="10" stroke-linecap="round" stroke-linejoin="round"/>
<path d="M28 34H30" stroke="#D0D0D4" stroke-width="1.5" stroke-miterlimit="10" stroke-linecap="round" stroke-linejoin="round"/>
<path d="M43 25L23 45" stroke="#D0D0D4" stroke-width="1.5" stroke-linecap="round" stroke-linejoin="round"/>
<path d="M129 189V188C129 185 131 183 134 183H144C147 183 149 185 149 188V196C149 199 147 201 144 201H143" stroke="#D0D0D4" stroke-width="1.5" stroke-linecap="round" stroke-linejoin="round"/>
<path d="M130.69 191.71C135.31 192.3 138.7 195.7 139.3 200.32" stroke="#D0D0D4" stroke-width="1.5" stroke-linecap="round" stroke-linejoin="round"/>
<path d="M129.62 195.07C133.01 195.5 135.5 198 135.94 201.39" stroke="#D0D0D4" stroke-width="1.5" stroke-linecap="round" stroke-linejoin="round"/>
<path d="M128.98 198.86C130.67 199.08 131.92 200.32 132.14 202.02" stroke="#D0D0D4" stroke-width="1.5" stroke-linecap="round" stroke-linejoin="round"/>
<path d="M272.97 196.61L270.86 194.5" stroke="#D0D0D4" stroke-width="1.5" stroke-miterlimit="10" stroke-linecap="round" stroke-linejoin="round"/>
<path d="M272.95 194.52L270.83 196.64" stroke="#D0D0D4" stroke-width="1.5" stroke-miterlimit="10" stroke-linecap="round" stroke-linejoin="round"/>
<path d="M265.54 190.12C260.86 190.45 260.86 197.26 265.54 197.59H267.46" stroke="#D0D0D4" stroke-width="1.5" stroke-miterlimit="10" stroke-linecap="round" stroke-linejoin="round"/>
<path d="M265.59 190.12C262.38 181.19 275.92 177.62 277.47 187C281.8 187.55 283.55 193.32 280.27 196.19C279.27 197.1 277.98 197.6 276.63 197.59H276.54" stroke="#D0D0D4" stroke-width="1.5" stroke-miterlimit="10" stroke-linecap="round" stroke-linejoin="round"/>
<path d="M277 195.53C277 196.27 276.84 196.97 276.54 197.59C276.46 197.77 276.37 197.94 276.27 198.1C275.41 199.55 273.82 200.53 272 200.53C270.18 200.53 268.59 199.55 267.73 198.1C267.63 197.94 267.54 197.77 267.46 197.59C267.16 196.97 267 196.27 267 195.53C267 192.77 269.24 190.53 272 190.53C274.76 190.53 277 192.77 277 195.53Z" stroke="#D0D0D4" stroke-width="1.5" stroke-miterlimit="10" stroke-linecap="round" stroke-linejoin="round"/>
<path d="M71 159H75C80 159 82 157 82 152V146C82 141 80 139 75 139H71C66 139 64 141 64 146V152C64 157 66 159 71 159Z" stroke="#D0D0D4" stroke-width="1.5" stroke-linecap="round" stroke-linejoin="round"/>
<path d="M78.25 145.29C75.26 142.63 70.74 142.63 67.75 145.29L69.93 148.79C71.68 147.23 74.32 147.23 76.07 148.79L78.25 145.29Z" stroke="#D0D0D4" stroke-width="1.5" stroke-linecap="round" stroke-linejoin="round"/>
<path d="M314.25 28H323.75V26C323.75 24 323 23 320.75 23H317.25C315 23 314.25 24 314.25 26V28Z" stroke="#D0D0D4" stroke-width="1.5" stroke-miterlimit="10" stroke-linecap="round" stroke-linejoin="round"/>
<path d="M323 36V40C323 42 322 43 320 43H318C316 43 315 42 315 40V36H323Z" stroke="#D0D0D4" stroke-width="1.5" stroke-miterlimit="10" stroke-linecap="round" stroke-linejoin="round"/>
<path d="M328 31V36C328 38 327 39 325 39H323V36H315V39H313C311 39 310 38 310 36V31C310 29 311 28 313 28H325C327 28 328 29 328 31Z" stroke="#D0D0D4" stroke-width="1.5" stroke-miterlimit="10" stroke-linecap="round" stroke-linejoin="round"/>
<path d="M324 36H322.79H314" stroke="#D0D0D4" stroke-width="1.5" stroke-miterlimit="10" stroke-linecap="round" stroke-linejoin="round"/>
<path d="M314 32H317" stroke="#D0D0D4" stroke-width="1.5" stroke-miterlimit="10" stroke-linecap="round" stroke-linejoin="round"/>
<path d="M192 167H185C182 167 180 165 180 162V152C180 149 182 147 185 147H192C195 147 197 149 197 152V162C197 165 195 167 192 167Z" stroke="#D0D0D4" stroke-width="1.5" stroke-linecap="round" stroke-linejoin="round"/>
<path d="M180 160H197" stroke="#D0D0D4" stroke-width="1.5" stroke-linecap="round" stroke-linejoin="round"/>
<path d="M183 157H184" stroke="#D0D0D4" stroke-width="1.5" stroke-linecap="round" stroke-linejoin="round"/>
<path d="M183 154.5H184" stroke="#D0D0D4" stroke-width="1.5" stroke-linecap="round" stroke-linejoin="round"/>
<path d="M183 152H184" stroke="#D0D0D4" stroke-width="1.5" stroke-linecap="round" stroke-linejoin="round"/>
<path d="M192.495 163.25H192.503" stroke="#D0D0D4" stroke-width="2" stroke-linecap="round" stroke-linejoin="round"/>
<path d="M7.26022 87H16.7302C17.3802 87 17.9602 87.02 18.4802 87.09C21.2502 87.4 22.0002 88.7 22.0002 92.26V98.58C22.0002 102.14 21.2502 103.44 18.4802 103.75C17.9602 103.82 17.3902 103.84 16.7302 103.84H7.26022C6.61022 103.84 6.03022 103.82 5.51022 103.75C2.74022 103.44 1.99023 102.14 1.99023 98.58V92.26C1.99023 88.7 2.74022 87.4 5.51022 87.09C6.03022 87.02 6.61022 87 7.26022 87Z" stroke="#D0D0D4" stroke-width="1.5" stroke-linecap="round" stroke-linejoin="round"/>
<path d="M13.5801 93.3201H17.2601" stroke="#D0D0D4" stroke-width="1.5" stroke-linecap="round" stroke-linejoin="round"/>
<path d="M6.74023 99.11H6.76022H17.2702" stroke="#D0D0D4" stroke-width="1.5" stroke-linecap="round" stroke-linejoin="round"/>
<path d="M7 107H17" stroke="#D0D0D4" stroke-width="1.5" stroke-linecap="round" stroke-linejoin="round"/>
<path d="M7.1947 93.3H7.20368" stroke="#D0D0D4" stroke-width="2" stroke-linecap="round" stroke-linejoin="round"/>
<path d="M10.4945 93.3H10.5035" stroke="#D0D0D4" stroke-width="2" stroke-linecap="round" stroke-linejoin="round"/>
<path d="M284.32 112H269.69C268.21 112 267.01 110.79 267.01 109.32V106.69C267.01 105.21 268.22 104.01 269.69 104.01H284.32C285.8 104.01 287 105.22 287 106.69V109.32C287 110.79 285.79 112 284.32 112Z" stroke="#D0D0D4" stroke-width="1.5" stroke-linecap="round" stroke-linejoin="round"/>
<path d="M284.32 124H269.69C268.21 124 267.01 122.79 267.01 121.32V118.69C267.01 117.21 268.22 116.01 269.69 116.01H284.32C285.8 116.01 287 117.22 287 118.69V121.32C287 122.79 285.79 124 284.32 124Z" stroke="#D0D0D4" stroke-width="1.5" stroke-linecap="round" stroke-linejoin="round"/>
<path d="M271 107V109" stroke="#D0D0D4" stroke-width="1.5" stroke-linecap="round" stroke-linejoin="round"/>
<path d="M275 107V109" stroke="#D0D0D4" stroke-width="1.5" stroke-linecap="round" stroke-linejoin="round"/>
<path d="M271 119V121" stroke="#D0D0D4" stroke-width="1.5" stroke-linecap="round" stroke-linejoin="round"/>
<path d="M275 119V121" stroke="#D0D0D4" stroke-width="1.5" stroke-linecap="round" stroke-linejoin="round"/>
<path d="M279 108H283" stroke="#D0D0D4" stroke-width="1.5" stroke-linecap="round" stroke-linejoin="round"/>
<path d="M279 120H283" stroke="#D0D0D4" stroke-width="1.5" stroke-linecap="round" stroke-linejoin="round"/>
<path d="M176 38C180.13 38 183.5 34.63 183.5 30.5V25.5C183.5 21.37 180.13 18 176 18C171.87 18 168.5 21.37 168.5 25.5V30.5C168.5 34.63 171.87 38 176 38Z" stroke="#D0D0D4" stroke-width="1.5" stroke-linecap="round" stroke-linejoin="round"/>
<path d="M176 27C175.17 27 174.5 26.33 174.5 25.5V23.5C174.5 22.67 175.17 22 176 22C176.82 22 177.5 22.67 177.5 23.5V25.5C177.5 26.33 176.82 27 176 27Z" stroke="#D0D0D4" stroke-width="1.5" stroke-linecap="round" stroke-linejoin="round"/>
<path d="M176 22V18" stroke="#D0D0D4" stroke-width="1.5" stroke-linecap="round" stroke-linejoin="round"/>
<path d="M251.32 72H236.69C235.21 72 234.01 70.79 234.01 69.32V66.69C234.01 65.21 235.22 64.01 236.69 64.01H251.32C252.8 64.01 254 65.22 254 66.69V69.32C254 70.79 252.79 72 251.32 72Z" stroke="#D0D0D4" stroke-width="1.5" stroke-linecap="round" stroke-linejoin="round"/>
<path d="M251.32 84H236.69C235.21 84 234.01 82.79 234.01 81.32V78.69C234.01 77.21 235.22 76.01 236.69 76.01H251.32C252.8 76.01 254 77.22 254 78.69V81.32C254 82.79 252.79 84 251.32 84Z" stroke="#D0D0D4" stroke-width="1.5" stroke-linecap="round" stroke-linejoin="round"/>
<path d="M238 67V69" stroke="#D0D0D4" stroke-width="1.5" stroke-linecap="round" stroke-linejoin="round"/>
<path d="M242 67V69" stroke="#D0D0D4" stroke-width="1.5" stroke-linecap="round" stroke-linejoin="round"/>
<path d="M238 79V81" stroke="#D0D0D4" stroke-width="1.5" stroke-linecap="round" stroke-linejoin="round"/>
<path d="M242 79V81" stroke="#D0D0D4" stroke-width="1.5" stroke-linecap="round" stroke-linejoin="round"/>
<path d="M246 68H250" stroke="#D0D0D4" stroke-width="1.5" stroke-linecap="round" stroke-linejoin="round"/>
<path d="M246 80H250" stroke="#D0D0D4" stroke-width="1.5" stroke-linecap="round" stroke-linejoin="round"/>
<path d="M378 237V240" stroke="#D0D0D4" stroke-width="1.5" stroke-miterlimit="10" stroke-linecap="round" stroke-linejoin="round"/>
<path d="M378 244C379.105 244 380 243.105 380 242C380 240.895 379.105 240 378 240C376.895 240 376 240.895 376 242C376 243.105 376.895 244 378 244Z" stroke="#D0D0D4" stroke-width="1.5" stroke-miterlimit="10" stroke-linecap="round" stroke-linejoin="round"/>
<path d="M384 242H380" stroke="#D0D0D4" stroke-width="1.5" stroke-miterlimit="10" stroke-linecap="round" stroke-linejoin="round"/>
<path d="M376 242H372" stroke="#D0D0D4" stroke-width="1.5" stroke-miterlimit="10" stroke-linecap="round" stroke-linejoin="round"/>
<path d="M385 229.3V233.5C385 236.3 384.3 237 381.5 237H374.5C371.7 237 371 236.3 371 233.5V226.5C371 223.7 371.7 223 374.5 223H375.55C376.6 223 376.83 223.31 377.23 223.84L378.28 225.24C378.55 225.59 378.7 225.8 379.4 225.8H381.5C384.3 225.8 385 226.5 385 229.3Z" stroke="#D0D0D4" stroke-width="1.5" stroke-miterlimit="10"/>
<path d="M377 170.25V172.25" stroke="#D0D0D4" stroke-width="1.5" stroke-linecap="round" stroke-linejoin="round"/>
<path d="M393 176V173C393 168 391 166 386 166H380C375 166 373 168 373 173V179C373 184 375 186 380 186H383" stroke="#D0D0D4" stroke-width="1.5" stroke-linecap="round" stroke-linejoin="round"/>
<path d="M381 170.25V172.25" stroke="#D0D0D4" stroke-width="1.5" stroke-linecap="round" stroke-linejoin="round"/>
<path d="M377 180V182" stroke="#D0D0D4" stroke-width="1.5" stroke-linecap="round" stroke-linejoin="round"/>
<path d="M381 180V182" stroke="#D0D0D4" stroke-width="1.5" stroke-linecap="round" stroke-linejoin="round"/>
<path d="M385 171.25H389" stroke="#D0D0D4" stroke-width="1.5" stroke-linecap="round" stroke-linejoin="round"/>
<path d="M373 176H393" stroke="#D0D0D4" stroke-width="1.5" stroke-linecap="round" stroke-linejoin="round"/>
<path d="M392.56 184.33C392 185.3 390.95 185.95 389.75 185.95C387.96 185.95 386.86 184.15 386.86 184.15M386.93 181.09C387.49 180.11 388.54 179.46 389.75 179.46C391.92 179.46 393 181.26 393 181.26M393 179.25V181.25H391M388.86 184.14H386.86V186" stroke="#D0D0D4" stroke-width="1.5" stroke-linecap="round" stroke-linejoin="round"/>
</svg>
