<svg width="398" height="238" viewBox="0 0 398 238" fill="none" xmlns="http://www.w3.org/2000/svg">
<path d="M141 43C136.56 42.34 132.093 42 127.64 42C125 42 122.36 42.2 119.72 42.6L117 43" stroke="#D0D0D4" stroke-width="1.5" stroke-linecap="round" stroke-linejoin="round"/>
<path d="M124 42L124.283 40.2357C124.489 38.9562 124.643 38 126.816 38H130.184C132.357 38 132.524 39.0101 132.717 40.2492L133 42" stroke="#D0D0D4" stroke-width="1.5" stroke-linecap="round" stroke-linejoin="round"/>
<path d="M138 47L137.146 60.3118C137.001 62.3872 136.883 64 133.218 64H124.782C121.117 64 120.999 62.3872 120.854 60.3118L120 47" stroke="#D0D0D4" stroke-width="1.5" stroke-linecap="round" stroke-linejoin="round"/>
<path d="M127 57H131" stroke="#D0D0D4" stroke-width="1.5" stroke-linecap="round" stroke-linejoin="round"/>
<path d="M126 52H133" stroke="#D0D0D4" stroke-width="1.5" stroke-linecap="round" stroke-linejoin="round"/>
<path d="M113 144H107C103 144 102 143 102 139V135C102 131 103 130 107 130H113C117 130 118 131 118 135V139C118 143 117 144 113 144Z" stroke="#D0D0D4" stroke-width="1.5" stroke-linecap="round" stroke-linejoin="round"/>
<path d="M121 135C123 135 123 135.5 123 136.5V138.5C123 139.5 123 140 121 140" stroke="#D0D0D4" stroke-width="1.5" stroke-linecap="round" stroke-linejoin="round"/>
<path d="M81.25 112H70.75C63.75 112 62 110.214 62 103.071V95.9286C62 88.7857 63.75 87 70.75 87H81.25C88.25 87 90 88.7857 90 95.9286V103.071C90 110.214 88.25 112 81.25 112Z" stroke="#D0D0D4" stroke-width="1.5" stroke-linecap="round" stroke-linejoin="round"/>
<path d="M94 95C97 95 97 95.9 97 97.7V101.3C97 103.1 97 104 94 104" stroke="#D0D0D4" stroke-width="1.5" stroke-linecap="round" stroke-linejoin="round"/>
<path d="M69 96C69.5775 98.2925 69.5775 100.708 69 103" stroke="#D0D0D4" stroke-width="1.5" stroke-linecap="round" stroke-linejoin="round"/>
<path d="M370 155C373 155 373 155.9 373 157.7V161.3C373 163.1 373 164 370 164" stroke="#D0D0D4" stroke-width="1.5" stroke-linecap="round" stroke-linejoin="round"/>
<path d="M345 156C345.578 158.292 345.578 160.708 345 163" stroke="#D0D0D4" stroke-width="1.5" stroke-linecap="round" stroke-linejoin="round"/>
<path d="M351 156C351.578 158.292 351.578 160.708 351 163" stroke="#D0D0D4" stroke-width="1.5" stroke-linecap="round" stroke-linejoin="round"/>
<path d="M357.25 172H346.75C339.75 172 338 170.214 338 163.071V155.929C338 148.786 339.75 147 346.75 147H357.25C364.25 147 366 148.786 366 155.929V163.071C366 170.214 364.25 172 357.25 172Z" stroke="#D0D0D4" stroke-width="1.5" stroke-linecap="round" stroke-linejoin="round"/>
<path d="M29 178C34.5 178 39 173.5 39 168C39 162.5 34.5 158 29 158C23.5 158 19 162.5 19 168C19 173.5 23.5 178 29 178Z" stroke="#D0D0D4" stroke-width="1.5" stroke-linecap="round" stroke-linejoin="round"/>
<path d="M25 168H33" stroke="#D0D0D4" stroke-width="1.5" stroke-linecap="round" stroke-linejoin="round"/>
<path d="M29 172V164" stroke="#D0D0D4" stroke-width="1.5" stroke-linecap="round" stroke-linejoin="round"/>
<path d="M318 88C323.5 88 328 83.5 328 78C328 72.5 323.5 68 318 68C312.5 68 308 72.5 308 78C308 83.5 312.5 88 318 88Z" stroke="#D0D0D4" stroke-width="1.5" stroke-linecap="round" stroke-linejoin="round"/>
<path d="M318 74V79" stroke="#D0D0D4" stroke-width="1.5" stroke-linecap="round" stroke-linejoin="round"/>
<path d="M318 82H318.009" stroke="#D0D0D4" stroke-width="2" stroke-linecap="round" stroke-linejoin="round"/>
<path d="M383 60L389 54" stroke="#D0D0D4" stroke-width="1.5" stroke-linecap="round" stroke-linejoin="round"/>
<path d="M389 60L383 54" stroke="#D0D0D4" stroke-width="1.5" stroke-linecap="round" stroke-linejoin="round"/>
<path d="M383 67H389C394 67 396 65 396 60V54C396 49 394 47 389 47H383C378 47 376 49 376 54V60C376 65 378 67 383 67Z" stroke="#D0D0D4" stroke-width="1.5" stroke-linecap="round" stroke-linejoin="round"/>
<path d="M248 11C251.279 13.4862 253.541 17.439 254 22" stroke="#D0D0D4" stroke-width="1.5" stroke-linecap="round" stroke-linejoin="round"/>
<path d="M224 22C224.433 17.4569 226.7 13.5041 230 11" stroke="#D0D0D4" stroke-width="1.5" stroke-linecap="round" stroke-linejoin="round"/>
<path d="M232 37C233.984 38.2826 236.242 39 238.62 39C240.912 39 243.067 38.3478 245 37.1522" stroke="#D0D0D4" stroke-width="1.5" stroke-linecap="round" stroke-linejoin="round"/>
<path d="M239 14C241.761 14 244 11.7614 244 9C244 6.23858 241.761 4 239 4C236.239 4 234 6.23858 234 9C234 11.7614 236.239 14 239 14Z" stroke="#D0D0D4" stroke-width="1.5" stroke-linecap="round" stroke-linejoin="round"/>
<path d="M227 35C229.761 35 232 32.7614 232 30C232 27.2386 229.761 25 227 25C224.239 25 222 27.2386 222 30C222 32.7614 224.239 35 227 35Z" stroke="#D0D0D4" stroke-width="1.5" stroke-linecap="round" stroke-linejoin="round"/>
<path d="M252 35C254.761 35 257 32.7614 257 30C257 27.2386 254.761 25 252 25C249.239 25 247 27.2386 247 30C247 32.7614 249.239 35 252 35Z" stroke="#D0D0D4" stroke-width="1.5" stroke-linecap="round" stroke-linejoin="round"/>
<path d="M357.6 119H362.4C366.4 119 368 117.4 368 113.4V108.6C368 104.6 366.4 103 362.4 103H357.6C353.6 103 352 104.6 352 108.6V113.4C352 117.4 353.6 119 357.6 119Z" stroke="#D0D0D4" stroke-width="1.5" stroke-linecap="round" stroke-linejoin="round"/>
<path d="M358.5 116H361.5C364 116 365 115 365 112.5V109.5C365 107 364 106 361.5 106H358.5C356 106 355 107 355 109.5V112.5C355 115 356 116 358.5 116Z" stroke="#D0D0D4" stroke-width="1.5" stroke-linecap="round" stroke-linejoin="round"/>
<path d="M356.01 103V101" stroke="#D0D0D4" stroke-width="1.5" stroke-linecap="round" stroke-linejoin="round"/>
<path d="M360 103V101" stroke="#D0D0D4" stroke-width="1.5" stroke-linecap="round" stroke-linejoin="round"/>
<path d="M364 103V101" stroke="#D0D0D4" stroke-width="1.5" stroke-linecap="round" stroke-linejoin="round"/>
<path d="M368 107H370" stroke="#D0D0D4" stroke-width="1.5" stroke-linecap="round" stroke-linejoin="round"/>
<path d="M368 111H370" stroke="#D0D0D4" stroke-width="1.5" stroke-linecap="round" stroke-linejoin="round"/>
<path d="M368 115H370" stroke="#D0D0D4" stroke-width="1.5" stroke-linecap="round" stroke-linejoin="round"/>
<path d="M364 119V121" stroke="#D0D0D4" stroke-width="1.5" stroke-linecap="round" stroke-linejoin="round"/>
<path d="M360.01 119V121" stroke="#D0D0D4" stroke-width="1.5" stroke-linecap="round" stroke-linejoin="round"/>
<path d="M356.01 119V121" stroke="#D0D0D4" stroke-width="1.5" stroke-linecap="round" stroke-linejoin="round"/>
<path d="M350 107H352" stroke="#D0D0D4" stroke-width="1.5" stroke-linecap="round" stroke-linejoin="round"/>
<path d="M350 111H352" stroke="#D0D0D4" stroke-width="1.5" stroke-linecap="round" stroke-linejoin="round"/>
<path d="M350 115H352" stroke="#D0D0D4" stroke-width="1.5" stroke-linecap="round" stroke-linejoin="round"/>
<path d="M360 108.7L359.06 110.34C358.85 110.7 359.02 111 359.44 111H360.56C360.98 111 361.15 111.3 360.94 111.66L360 113.3" stroke="#D0D0D4" stroke-width="1.5" stroke-linecap="round" stroke-linejoin="round"/>
<path d="M195 86.6C195 82.6 193.4 81 189.4 81H184.6C180.6 81 179 82.6 179 86.6V91.4C179 95.4 180.6 97 184.6 97" stroke="#D0D0D4" stroke-width="1.5" stroke-linecap="round" stroke-linejoin="round"/>
<path d="M191.35 85C190.8 84.3 189.88 84 188.5 84H185.5C183 84 182 85 182 87.5V90.5C182 91.88 182.3 92.8 182.99 93.35" stroke="#D0D0D4" stroke-width="1.5" stroke-linecap="round" stroke-linejoin="round"/>
<path d="M183.01 81V79" stroke="#D0D0D4" stroke-width="1.5" stroke-linecap="round" stroke-linejoin="round"/>
<path d="M187 81V79" stroke="#D0D0D4" stroke-width="1.5" stroke-linecap="round" stroke-linejoin="round"/>
<path d="M191 81V79" stroke="#D0D0D4" stroke-width="1.5" stroke-linecap="round" stroke-linejoin="round"/>
<path d="M195 85H197" stroke="#D0D0D4" stroke-width="1.5" stroke-linecap="round" stroke-linejoin="round"/>
<path d="M183.01 97V99" stroke="#D0D0D4" stroke-width="1.5" stroke-linecap="round" stroke-linejoin="round"/>
<path d="M177 85H179" stroke="#D0D0D4" stroke-width="1.5" stroke-linecap="round" stroke-linejoin="round"/>
<path d="M177 89H179" stroke="#D0D0D4" stroke-width="1.5" stroke-linecap="round" stroke-linejoin="round"/>
<path d="M177 93H179" stroke="#D0D0D4" stroke-width="1.5" stroke-linecap="round" stroke-linejoin="round"/>
<path d="M191.71 95.59C192.588 95.59 193.3 94.8781 193.3 94C193.3 93.1218 192.588 92.41 191.71 92.41C190.832 92.41 190.12 93.1218 190.12 94C190.12 94.8781 190.832 95.59 191.71 95.59Z" stroke="#D0D0D4" stroke-width="1.5" stroke-miterlimit="10" stroke-linecap="round" stroke-linejoin="round"/>
<path d="M186.41 94.46V93.53C186.41 92.98 186.86 92.53 187.41 92.53C188.37 92.53 188.76 91.85 188.28 91.02C188 90.54 188.17 89.92 188.65 89.65L189.56 89.12C189.98 88.87 190.52 89.02 190.77 89.44L190.83 89.54C191.31 90.37 192.09 90.37 192.57 89.54L192.63 89.44C192.88 89.02 193.42 88.88 193.84 89.12L194.75 89.65C195.23 89.93 195.4 90.54 195.12 91.02C194.64 91.85 195.03 92.53 195.99 92.53C196.54 92.53 196.99 92.98 196.99 93.53V94.46C196.99 95.01 196.54 95.46 195.99 95.46C195.03 95.46 194.64 96.14 195.12 96.97C195.4 97.45 195.23 98.07 194.75 98.34L193.84 98.87C193.42 99.12 192.88 98.97 192.63 98.55L192.57 98.45C192.09 97.62 191.31 97.62 190.83 98.45L190.77 98.55C190.52 98.97 189.98 99.11 189.56 98.87L188.65 98.34C188.17 98.06 188 97.45 188.28 96.97C188.76 96.14 188.37 95.46 187.41 95.46C186.86 95.47 186.41 95.02 186.41 94.46Z" stroke="#D0D0D4" stroke-width="1.5" stroke-miterlimit="10" stroke-linecap="round" stroke-linejoin="round"/>
<path d="M28.25 30H37.75V28C37.75 26 37 25 34.75 25H31.25C29 25 28.25 26 28.25 28V30Z" stroke="#D0D0D4" stroke-width="1.5" stroke-miterlimit="10" stroke-linecap="round" stroke-linejoin="round"/>
<path d="M33.9698 38H36.9998V42C36.9998 44 35.9998 45 33.9998 45H31.9998C30.3098 45 29.3298 44.29 29.0698 42.86" stroke="#D0D0D4" stroke-width="1.5" stroke-miterlimit="10" stroke-linecap="round" stroke-linejoin="round"/>
<path d="M27 41C25 41 24 40 24 38V33C24 31 25 30 27 30H37.59" stroke="#D0D0D4" stroke-width="1.5" stroke-miterlimit="10" stroke-linecap="round" stroke-linejoin="round"/>
<path d="M40.97 30.52C41.66 31 42 31.83 42 33V38C42 40 41 41 39 41H37V38H34" stroke="#D0D0D4" stroke-width="1.5" stroke-miterlimit="10" stroke-linecap="round" stroke-linejoin="round"/>
<path d="M38 38H36.79" stroke="#D0D0D4" stroke-width="1.5" stroke-miterlimit="10" stroke-linecap="round" stroke-linejoin="round"/>
<path d="M28 34H30" stroke="#D0D0D4" stroke-width="1.5" stroke-miterlimit="10" stroke-linecap="round" stroke-linejoin="round"/>
<path d="M43 25L23 45" stroke="#D0D0D4" stroke-width="1.5" stroke-linecap="round" stroke-linejoin="round"/>
<path d="M90 199H94C99 199 101 197 101 192V186C101 181 99 179 94 179H90C85 179 83 181 83 186V192C83 197 85 199 90 199Z" stroke="#D0D0D4" stroke-width="1.5" stroke-linecap="round" stroke-linejoin="round"/>
<path d="M97.25 185.29C94.26 182.63 89.74 182.63 86.75 185.29L88.93 188.79C90.68 187.23 93.32 187.23 95.07 188.79L97.25 185.29Z" stroke="#D0D0D4" stroke-width="1.5" stroke-linecap="round" stroke-linejoin="round"/>
<path d="M314.25 28H323.75V26C323.75 24 323 23 320.75 23H317.25C315 23 314.25 24 314.25 26V28Z" stroke="#D0D0D4" stroke-width="1.5" stroke-miterlimit="10" stroke-linecap="round" stroke-linejoin="round"/>
<path d="M323 36V40C323 42 322 43 320 43H318C316 43 315 42 315 40V36H323Z" stroke="#D0D0D4" stroke-width="1.5" stroke-miterlimit="10" stroke-linecap="round" stroke-linejoin="round"/>
<path d="M328 31V36C328 38 327 39 325 39H323V36H315V39H313C311 39 310 38 310 36V31C310 29 311 28 313 28H325C327 28 328 29 328 31Z" stroke="#D0D0D4" stroke-width="1.5" stroke-miterlimit="10" stroke-linecap="round" stroke-linejoin="round"/>
<path d="M324 36H322.79H314" stroke="#D0D0D4" stroke-width="1.5" stroke-miterlimit="10" stroke-linecap="round" stroke-linejoin="round"/>
<path d="M314 32H317" stroke="#D0D0D4" stroke-width="1.5" stroke-miterlimit="10" stroke-linecap="round" stroke-linejoin="round"/>
<path d="M7.26022 87H16.7302C17.3802 87 17.9602 87.02 18.4802 87.09C21.2502 87.4 22.0002 88.7 22.0002 92.26V98.58C22.0002 102.14 21.2502 103.44 18.4802 103.75C17.9602 103.82 17.3902 103.84 16.7302 103.84H7.26022C6.61022 103.84 6.03022 103.82 5.51022 103.75C2.74022 103.44 1.99023 102.14 1.99023 98.58V92.26C1.99023 88.7 2.74022 87.4 5.51022 87.09C6.03022 87.02 6.61022 87 7.26022 87Z" stroke="#D0D0D4" stroke-width="1.5" stroke-linecap="round" stroke-linejoin="round"/>
<path d="M13.5801 93.32H17.2601" stroke="#D0D0D4" stroke-width="1.5" stroke-linecap="round" stroke-linejoin="round"/>
<path d="M6.74023 99.11H6.76022H17.2702" stroke="#D0D0D4" stroke-width="1.5" stroke-linecap="round" stroke-linejoin="round"/>
<path d="M7 107H17" stroke="#D0D0D4" stroke-width="1.5" stroke-linecap="round" stroke-linejoin="round"/>
<path d="M7.1947 93.3H7.20368" stroke="#D0D0D4" stroke-width="2" stroke-linecap="round" stroke-linejoin="round"/>
<path d="M10.4945 93.3H10.5035" stroke="#D0D0D4" stroke-width="2" stroke-linecap="round" stroke-linejoin="round"/>
<path d="M284.32 112H269.69C268.21 112 267.01 110.79 267.01 109.32V106.69C267.01 105.21 268.22 104.01 269.69 104.01H284.32C285.8 104.01 287 105.22 287 106.69V109.32C287 110.79 285.79 112 284.32 112Z" stroke="#D0D0D4" stroke-width="1.5" stroke-linecap="round" stroke-linejoin="round"/>
<path d="M284.32 124H269.69C268.21 124 267.01 122.79 267.01 121.32V118.69C267.01 117.21 268.22 116.01 269.69 116.01H284.32C285.8 116.01 287 117.22 287 118.69V121.32C287 122.79 285.79 124 284.32 124Z" stroke="#D0D0D4" stroke-width="1.5" stroke-linecap="round" stroke-linejoin="round"/>
<path d="M271 107V109" stroke="#D0D0D4" stroke-width="1.5" stroke-linecap="round" stroke-linejoin="round"/>
<path d="M275 107V109" stroke="#D0D0D4" stroke-width="1.5" stroke-linecap="round" stroke-linejoin="round"/>
<path d="M271 119V121" stroke="#D0D0D4" stroke-width="1.5" stroke-linecap="round" stroke-linejoin="round"/>
<path d="M275 119V121" stroke="#D0D0D4" stroke-width="1.5" stroke-linecap="round" stroke-linejoin="round"/>
<path d="M279 108H283" stroke="#D0D0D4" stroke-width="1.5" stroke-linecap="round" stroke-linejoin="round"/>
<path d="M279 120H283" stroke="#D0D0D4" stroke-width="1.5" stroke-linecap="round" stroke-linejoin="round"/>
<path d="M176 38C180.13 38 183.5 34.63 183.5 30.5V25.5C183.5 21.37 180.13 18 176 18C171.87 18 168.5 21.37 168.5 25.5V30.5C168.5 34.63 171.87 38 176 38Z" stroke="#D0D0D4" stroke-width="1.5" stroke-linecap="round" stroke-linejoin="round"/>
<path d="M176 27C175.17 27 174.5 26.33 174.5 25.5V23.5C174.5 22.67 175.17 22 176 22C176.82 22 177.5 22.67 177.5 23.5V25.5C177.5 26.33 176.82 27 176 27Z" stroke="#D0D0D4" stroke-width="1.5" stroke-linecap="round" stroke-linejoin="round"/>
<path d="M176 22V18" stroke="#D0D0D4" stroke-width="1.5" stroke-linecap="round" stroke-linejoin="round"/>
<path d="M251.32 72H236.69C235.21 72 234.01 70.79 234.01 69.32V66.69C234.01 65.21 235.22 64.01 236.69 64.01H251.32C252.8 64.01 254 65.22 254 66.69V69.32C254 70.79 252.79 72 251.32 72Z" stroke="#D0D0D4" stroke-width="1.5" stroke-linecap="round" stroke-linejoin="round"/>
<path d="M251.32 84H236.69C235.21 84 234.01 82.79 234.01 81.32V78.69C234.01 77.21 235.22 76.01 236.69 76.01H251.32C252.8 76.01 254 77.22 254 78.69V81.32C254 82.79 252.79 84 251.32 84Z" stroke="#D0D0D4" stroke-width="1.5" stroke-linecap="round" stroke-linejoin="round"/>
<path d="M238 67V69" stroke="#D0D0D4" stroke-width="1.5" stroke-linecap="round" stroke-linejoin="round"/>
<path d="M242 67V69" stroke="#D0D0D4" stroke-width="1.5" stroke-linecap="round" stroke-linejoin="round"/>
<path d="M238 79V81" stroke="#D0D0D4" stroke-width="1.5" stroke-linecap="round" stroke-linejoin="round"/>
<path d="M242 79V81" stroke="#D0D0D4" stroke-width="1.5" stroke-linecap="round" stroke-linejoin="round"/>
<path d="M246 68H250" stroke="#D0D0D4" stroke-width="1.5" stroke-linecap="round" stroke-linejoin="round"/>
<path d="M246 80H250" stroke="#D0D0D4" stroke-width="1.5" stroke-linecap="round" stroke-linejoin="round"/>
<path d="M290 176.25V178.25" stroke="#D0D0D4" stroke-width="1.5" stroke-linecap="round" stroke-linejoin="round"/>
<path d="M306 182V179C306 174 304 172 299 172H293C288 172 286 174 286 179V185C286 190 288 192 293 192H296" stroke="#D0D0D4" stroke-width="1.5" stroke-linecap="round" stroke-linejoin="round"/>
<path d="M294 176.25V178.25" stroke="#D0D0D4" stroke-width="1.5" stroke-linecap="round" stroke-linejoin="round"/>
<path d="M290 186V188" stroke="#D0D0D4" stroke-width="1.5" stroke-linecap="round" stroke-linejoin="round"/>
<path d="M294 186V188" stroke="#D0D0D4" stroke-width="1.5" stroke-linecap="round" stroke-linejoin="round"/>
<path d="M298 177.25H302" stroke="#D0D0D4" stroke-width="1.5" stroke-linecap="round" stroke-linejoin="round"/>
<path d="M286 182H306" stroke="#D0D0D4" stroke-width="1.5" stroke-linecap="round" stroke-linejoin="round"/>
<path d="M305.56 190.33C305 191.3 303.95 191.95 302.75 191.95C300.96 191.95 299.86 190.15 299.86 190.15M299.93 187.09C300.49 186.11 301.54 185.46 302.75 185.46C304.92 185.46 306 187.26 306 187.26M306 185.25V187.25H304M301.86 190.14H299.86V192" stroke="#D0D0D4" stroke-width="1.5" stroke-linecap="round" stroke-linejoin="round"/>
</svg>
