<svg width="64" height="25" viewBox="0 0 64 25" fill="none" xmlns="http://www.w3.org/2000/svg">
<path d="M19.9201 9.44995L13.4001 15.97C12.6301 16.74 11.3701 16.74 10.6001 15.97L4.08008 9.44995" stroke="#292D32" stroke-width="1.5" stroke-miterlimit="10" stroke-linecap="round" stroke-linejoin="round"/>
<path d="M61.97 18.83C61.97 19.19 61.89 19.56 61.72 19.92C61.55 20.28 61.33 20.62 61.04 20.94C60.55 21.48 60.01 21.87 59.4 22.12C58.8 22.37 58.15 22.5 57.45 22.5C56.43 22.5 55.34 22.26 54.19 21.77C53.04 21.28 51.89 20.62 50.75 19.79C49.6 18.95 48.51 18.02 47.47 16.99C46.44 15.95 45.51 14.86 44.68 13.72C43.86 12.58 43.2 11.44 42.72 10.31C42.24 9.17 42 8.08 42 7.04C42 6.36 42.12 5.71 42.36 5.11C42.6 4.5 42.98 3.94 43.51 3.44C44.15 2.81 44.85 2.5 45.59 2.5C45.87 2.5 46.15 2.56 46.4 2.68C46.66 2.8 46.89 2.98 47.07 3.24L49.39 6.51C49.57 6.76 49.7 6.99 49.79 7.21C49.88 7.42 49.93 7.63 49.93 7.82C49.93 8.06 49.86 8.3 49.72 8.53C49.59 8.76 49.4 9 49.16 9.24L48.4 10.03C48.29 10.14 48.24 10.27 48.24 10.43C48.24 10.51 48.25 10.58 48.27 10.66C48.3 10.74 48.33 10.8 48.35 10.86C48.53 11.19 48.84 11.62 49.28 12.14C49.73 12.66 50.21 13.19 50.73 13.72C51.27 14.25 51.79 14.74 52.32 15.19C52.84 15.63 53.27 15.93 53.61 16.11C53.66 16.13 53.72 16.16 53.79 16.19C53.87 16.22 53.95 16.23 54.04 16.23C54.21 16.23 54.34 16.17 54.45 16.06L55.21 15.31C55.46 15.06 55.7 14.87 55.93 14.75C56.16 14.61 56.39 14.54 56.64 14.54C56.83 14.54 57.03 14.58 57.25 14.67C57.47 14.76 57.7 14.89 57.95 15.06L61.26 17.41C61.52 17.59 61.7 17.8 61.81 18.05C61.91 18.3 61.97 18.55 61.97 18.83Z" stroke="#292D32" stroke-width="1.5" stroke-miterlimit="10"/>
</svg>
