<svg width="49" height="50" viewBox="0 0 49 50" fill="none" xmlns="http://www.w3.org/2000/svg">
<path d="M31.2781 25.6633L30.5239 24.4243C30.0356 24.7217 29.7676 25.2778 29.8392 25.8449C29.9106 26.4118 30.3083 26.884 30.8551 27.0508L31.2781 25.6633ZM17.7218 25.6633L18.1448 27.0508C18.6915 26.884 19.0893 26.4118 19.1609 25.8449C19.2323 25.2778 18.9643 24.7217 18.476 24.4243L17.7218 25.6633ZM36.1038 14.5046C36.1038 18.7051 33.8727 22.3859 30.5239 24.4243L32.0323 26.9023C36.2097 24.3594 39.0047 19.7591 39.0047 14.5046H36.1038ZM24.5001 2.90093C30.9085 2.90093 36.1038 8.09608 36.1038 14.5046H39.0047C39.0047 6.49395 32.5107 0 24.5001 0V2.90093ZM12.8963 14.5046C12.8963 8.09608 18.0914 2.90093 24.5001 2.90093V0C16.4893 0 9.99534 6.49395 9.99534 14.5046H12.8963ZM18.476 24.4243C15.1273 22.3859 12.8963 18.7052 12.8963 14.5046H9.99534C9.99534 19.7591 12.7903 24.3594 16.9676 26.9023L18.476 24.4243ZM17.2988 24.2758C8.14128 27.0682 1.24499 35.0443 0.0320561 44.7909L2.91076 45.1491C3.98004 36.5569 10.0645 29.5146 18.1448 27.0508L17.2988 24.2758ZM0.0320561 44.7909C-0.288525 47.3669 1.84545 49.3157 4.19349 49.3157V46.4148C3.33728 46.4148 2.83563 45.7531 2.91076 45.1491L0.0320561 44.7909ZM4.19349 49.3157H44.8066V46.4148H4.19349V49.3157ZM44.8066 49.3157C47.1546 49.3157 49.2885 47.3669 48.9679 44.7909L46.0891 45.1491C46.1642 45.7531 45.6626 46.4148 44.8066 46.4148V49.3157ZM48.9679 44.7909C47.7551 35.0443 40.8587 27.0682 31.7011 24.2758L30.8551 27.0508C38.9354 29.5146 45.0198 36.5569 46.0891 45.1491L48.9679 44.7909Z" fill="#347FFE"/>
</svg>
